<?xml version="1.0" encoding="UTF-8" standalone="no"?>
<!-- Created with Inkscape (http://www.inkscape.org/) -->

<svg
   width="247.38924"
   height="181.67519"
   viewBox="0 0 247.3893 181.67522"
   version="1.1"
   id="svg1"
   xml:space="preserve"
   inkscape:version="1.3.2 (091e20e, 2023-11-25)"
   sodipodi:docname="slime-spiky-and-desperate.svg"
   xmlns:inkscape="http://www.inkscape.org/namespaces/inkscape"
   xmlns:sodipodi="http://sodipodi.sourceforge.net/DTD/sodipodi-0.dtd"
   xmlns="http://www.w3.org/2000/svg"
   xmlns:svg="http://www.w3.org/2000/svg"><sodipodi:namedview
     id="namedview1"
     pagecolor="#ffffff"
     bordercolor="#999999"
     borderopacity="1"
     inkscape:showpageshadow="2"
     inkscape:pageopacity="0"
     inkscape:pagecheckerboard="0"
     inkscape:deskcolor="#d1d1d1"
     inkscape:document-units="px"
     inkscape:zoom="2"
     inkscape:cx="101.5"
     inkscape:cy="89.5"
     inkscape:window-width="1424"
     inkscape:window-height="449"
     inkscape:window-x="0"
     inkscape:window-y="25"
     inkscape:window-maximized="0"
     inkscape:current-layer="layer5"
     showgrid="false"><inkscape:page
       x="0"
       y="0"
       width="247.3893"
       height="181.67522"
       id="page38"
       margin="0"
       bleed="0" /></sodipodi:namedview><defs
     id="defs1"><linearGradient
       id="swatch119"><stop
         style="stop-color:#000000;stop-opacity:1;"
         offset="0"
         id="stop119" /></linearGradient><inkscape:path-effect
       effect="spiro"
       id="path-effect51"
       is_visible="true"
       lpeversion="1" /><inkscape:path-effect
       effect="bspline"
       id="path-effect50"
       is_visible="true"
       lpeversion="1.3"
       weight="33.333333"
       steps="2"
       helper_size="0"
       apply_no_weight="true"
       apply_with_weight="true"
       only_selected="false"
       uniform="false" /><inkscape:path-effect
       effect="bspline"
       id="path-effect49"
       is_visible="true"
       lpeversion="1.3"
       weight="33.333333"
       steps="2"
       helper_size="0"
       apply_no_weight="true"
       apply_with_weight="true"
       only_selected="false"
       uniform="false" /><inkscape:path-effect
       effect="bspline"
       id="path-effect48"
       is_visible="true"
       lpeversion="1.3"
       weight="33.333333"
       steps="2"
       helper_size="0"
       apply_no_weight="true"
       apply_with_weight="true"
       only_selected="false"
       uniform="false" /><inkscape:path-effect
       effect="bspline"
       id="path-effect47"
       is_visible="true"
       lpeversion="1.3"
       weight="33.333333"
       steps="2"
       helper_size="0"
       apply_no_weight="true"
       apply_with_weight="true"
       only_selected="false"
       uniform="false" /><inkscape:path-effect
       effect="bspline"
       id="path-effect46"
       is_visible="true"
       lpeversion="1.3"
       weight="33.333333"
       steps="2"
       helper_size="0"
       apply_no_weight="true"
       apply_with_weight="true"
       only_selected="false"
       uniform="false" /><linearGradient
       id="swatch22"><stop
         style="stop-color:#fbb343;stop-opacity:1;"
         offset="0"
         id="stop22" /></linearGradient><linearGradient
       id="swatch32"><stop
         style="stop-color:#fbb343;stop-opacity:1;"
         offset="0"
         id="stop32" /></linearGradient><linearGradient
       id="swatch31"><stop
         style="stop-color:#fbb343;stop-opacity:1;"
         offset="0"
         id="stop31" /></linearGradient><linearGradient
       id="swatch11"><stop
         style="stop-color:#000000;stop-opacity:1;"
         offset="0"
         id="stop11" /></linearGradient><linearGradient
       id="swatch10"
       inkscape:swatch="solid"
       inkscape:label="jamboard-yellow"
       inkscape:pinned="true"
       gradientTransform="translate(23.32429,-6.54244)"><stop
         style="stop-color:#fbb343;stop-opacity:1;"
         offset="0"
         id="stop10" /></linearGradient><linearGradient
       id="swatch9"><stop
         style="stop-color:#ffffff;stop-opacity:1;"
         offset="0"
         id="stop9" /></linearGradient><linearGradient
       id="swatch8"><stop
         style="stop-color:#ffffff;stop-opacity:1;"
         offset="0"
         id="stop8" /></linearGradient><linearGradient
       id="swatch7"><stop
         style="stop-color:#ffffff;stop-opacity:1;"
         offset="0"
         id="stop7" /></linearGradient><linearGradient
       id="swatch6"
       inkscape:swatch="solid"
       inkscape:label="jamboard-red"
       inkscape:pinned="true"
       gradientTransform="matrix(0.74273902,0,0,0.38296691,192.28446,75.907002)"><stop
         style="stop-color:#e4483f;stop-opacity:1;"
         offset="0"
         id="stop6" /></linearGradient><linearGradient
       id="swatch5"><stop
         style="stop-color:#609d4a;stop-opacity:1;"
         offset="0"
         id="stop5" /></linearGradient><linearGradient
       id="swatch4"
       inkscape:swatch="solid"
       inkscape:label="jamboard-white"
       inkscape:pinned="true"
       gradientTransform="translate(-0.87499999,1.1017135)"><stop
         style="stop-color:#ffffff;stop-opacity:1;"
         offset="0"
         id="stop4" /></linearGradient><linearGradient
       id="swatch3"
       inkscape:swatch="solid"
       inkscape:label="jamboard-charcoal"
       gradientTransform="matrix(0.19753784,0.00452506,-0.00452506,0.19753784,-548.48168,-47.439586)"
       inkscape:pinned="true"><stop
         style="stop-color:#262626;stop-opacity:1;"
         offset="0"
         id="stop3" /></linearGradient><linearGradient
       id="swatch2"
       inkscape:swatch="solid"
       inkscape:label="jamboard-green"
       inkscape:pinned="true"
       gradientTransform="matrix(0.79852652,0,0,1.0032634,99.583553,-1.0490216)"><stop
         style="stop-color:#609d4a;stop-opacity:1;"
         offset="0"
         id="stop2" /></linearGradient><linearGradient
       id="swatch1"
       inkscape:swatch="solid"
       inkscape:label="jamboard-azure"
       inkscape:pinned="true"
       gradientTransform="translate(-1.999944,-1.0625)"><stop
         style="stop-color:#00abbf;stop-opacity:1;"
         offset="0"
         id="stop1" /></linearGradient><inkscape:path-effect
       effect="bspline"
       id="path-effect50-6"
       is_visible="true"
       lpeversion="1.3"
       weight="33.333333"
       steps="2"
       helper_size="0"
       apply_no_weight="true"
       apply_with_weight="true"
       only_selected="false"
       uniform="false" /></defs><g
     inkscape:groupmode="layer"
     id="layer5"
     inkscape:label="Objects Slide 6"
     style="display:inline"><g
       id="g132"
       inkscape:label="slime - spiky and desperate"
       transform="translate(-370.58162,-217.13499)"><path
         style="font-variation-settings:normal;opacity:1;fill:none;fill-opacity:1;stroke:url(#swatch2);stroke-width:2;stroke-linecap:round;stroke-linejoin:round;stroke-miterlimit:4;stroke-dasharray:none;stroke-dashoffset:0;stroke-opacity:1"
         d="m 394.18631,380.26121 c 12.10659,-2.42329 20.32328,7.59647 31.05503,8.96196 8.3689,1.06484 16.85774,0.16752 24.98486,-2.76006 6.70604,-2.41567 11.2011,-2.59876 19.89955,-2.71898 11.09666,-0.15334 16.09875,1.62682 25.55523,2.1924 9.58545,0.57328 18.88547,4.06593 28.5145,4.25648 9.14535,0.18098 21.41694,0.91938 30.56219,-0.8133 8.54416,-1.6188 18.60626,-0.0502 27.22094,-0.91278 8.37313,-6.63688 13.95218,-8.74424 21.50672,-8.28071 -4.84727,-5.89458 -8.36035,-13.43017 -12.13153,-18.55605 4.98544,-3.51175 8.22189,-8.5453 12.76958,-14.92505 -9.3293,-15.47617 -21.73657,-26.0556 -21.37157,-31.68064 0.13517,-2.083 9.62295,-13.47661 11.72603,-21.12826 -5.91881,-10.56535 -11.96248,-11.05238 -17.55878,-12.68699 -1.20877,-2.17988 -1.98672,-1.67031 -2.89536,-8.39646 -14.7495,-4.09813 -21.75824,5.3655 -27.98358,4.36166 -0.32433,-4.41113 0.18985,-8.03246 -0.85936,-13.95936 -10.20451,-3.05444 -28.69592,-10.5191 -31.61825,-10.56059 -7.68724,-0.10911 -13.27074,10.36779 -20.38701,15.92237 -20.27436,-10.78204 -28.75887,-15.87945 -49.15084,-14.29157 -0.35423,3.61456 -0.20239,6.7839 -0.20239,6.7839 -5.18444,6.80132 -9.5962,13.49857 -16.5807,24.66071 -7.34095,0.28789 -14.89406,0.38326 -22.94788,1.6446 0.91183,28.16229 4.56919,48.46225 4.56919,48.46225 l -24.4338,1.16802 z"
         id="path117"
         sodipodi:nodetypes="cssssssccccscccccscccccccc"
         inkscape:label="spiky slimy outline 1" /><g
         id="g126"
         inkscape:label="kneeling guy 2"><path
           style="font-variation-settings:normal;fill:none;fill-opacity:1;stroke:url(#swatch3);stroke-width:2;stroke-linecap:round;stroke-linejoin:round;stroke-miterlimit:4;stroke-dasharray:none;stroke-dashoffset:0;stroke-opacity:1"
           d="m 468.79742,330.93242 c 8.34562,1.3544 27.84744,0.66651 38.29543,6.62157 6.5728,3.74631 -0.30544,15.29896 4.90714,20.54288 4.41546,4.442 13.49152,2.86771 19.31111,3.20648"
           id="path120-5"
           sodipodi:nodetypes="cssc" /><path
           style="font-variation-settings:normal;fill:none;fill-opacity:1;stroke:url(#swatch3);stroke-width:2;stroke-linecap:round;stroke-linejoin:round;stroke-miterlimit:4;stroke-dasharray:none;stroke-dashoffset:0;stroke-opacity:1"
           d="m 485.92001,333.28682 c 0.34413,6.54979 1.58109,10.77969 2.39822,17.17257 -1.39,1.36853 -6.72314,9.59086 -7.09927,12.41163"
           id="path121-1"
           sodipodi:nodetypes="ccc" /><path
           style="font-variation-settings:normal;fill:url(#swatch3);fill-opacity:1;stroke:url(#swatch3);stroke-width:2;stroke-linecap:round;stroke-linejoin:round;stroke-miterlimit:4;stroke-dasharray:none;stroke-dashoffset:0;stroke-opacity:1"
           d="m 465.73079,328.5379 c 0,0 -3.79744,-3.0942 -6.1848,-0.9876 -2.82875,2.13767 -4.47759,6.50371 -2.17806,9.6006 2.69487,3.92101 9.4591,3.95797 11.82349,-0.33615 1.92193,-3.24256 -0.42834,-7.28368 -3.65569,-8.52787 -2.45385,-1.1866 -6.08625,-0.40797 -6.80737,2.54388 -1.08216,2.57938 1.24836,5.62009 4.02734,4.98873 2.7963,-0.45993 0.70841,-3.55628 -0.74747,-4.41054 -2.09555,-0.91418 1.95589,2.14574 0.28277,0.0631 -1.50283,-2.47465 -4.17545,0.30718 -2.62646,2.2932 1.0689,2.33969 4.834,3.47742 6.59071,1.32554 1.28634,-2.40644 -1.66997,-6.25015 -4.28806,-4.59614 -2.54384,1.40548 -2.37667,5.34739 0.1788,6.63411 2.25649,1.64672 5.40542,0.10976 5.95354,-2.50139 1.17905,-3.33818 -0.79249,-7.64443 -4.4726,-8.20301 -4.29683,-0.8293 -8.93456,2.26488 -10.0542,6.43843 -0.62135,3.7 2.69342,6.88073 6.13819,7.46419 3.11244,0.71953 7.32501,-0.47574 8.15071,-3.92492 0.30164,-3.0068 -0.96078,-6.22147 -3.09926,-8.33898 -2.89134,-2.94159 -8.75984,0.0179 -7.92426,4.10698 0.39764,3.64037 4.67247,6.78427 8.14695,4.90332 3.81741,-1.97796 3.05101,-8.67396 -1.2368,-9.54676 -3.40445,-0.79954 -6.54643,2.62776 -6.04366,5.94443 0.10302,2.67809 2.75182,4.88516 5.41188,4.2504 2.7469,-0.33378 5.02086,-3.24078 3.97551,-5.98087 -1.20623,-3.60559 -6.08774,-4.26964 -8.88176,-2.14008 -2.53034,1.56422 -4.00125,5.62307 -1.54564,7.88718 2.12047,2.10136 6.4992,1.86301 7.52625,-1.26227 1.62223,-3.77812 -1.06732,-9.13381 -5.45744,-9.03003 -5.05854,0.11948 -8.28897,6.86919 -5.13209,10.86299 3.53068,4.78891 12.09595,4.42109 14.87021,-0.96309 1.0466,-3.01638 -1.9288,-5.65167 -4.52888,-6.55119 -2.42345,-0.90139 -3.7678,2.29393 -2.44778,4.04945 1.46746,2.13732 4.2022,0.44449 5.51528,-0.96748 2.07501,-1.53929 1.6618,-5.16186 -1.27935,-5.08816 -3.09408,-0.65704 -4.0198,3.86695 -1.31224,5.01439 3.22293,0.53711 1.01072,-2.6564 1.31224,-5.01439 z"
           id="path122-7"
           sodipodi:nodetypes="scccccccccccccccccccccccccccscccccccs" /></g></g></g></svg>
