<?xml version="1.0" encoding="UTF-8" standalone="no"?>
<!-- Created with Inkscape (http://www.inkscape.org/) -->

<svg
   width="800"
   height="512"
   viewBox="0 0 800.00021 512.0001"
   version="1.1"
   id="svg1"
   xml:space="preserve"
   inkscape:version="1.3.2 (091e20e, 2023-11-25)"
   sodipodi:docname="non-monads.svg"
   xmlns:inkscape="http://www.inkscape.org/namespaces/inkscape"
   xmlns:sodipodi="http://sodipodi.sourceforge.net/DTD/sodipodi-0.dtd"
   xmlns="http://www.w3.org/2000/svg"
   xmlns:svg="http://www.w3.org/2000/svg"><sodipodi:namedview
     id="namedview1"
     pagecolor="#ffffff"
     bordercolor="#999999"
     borderopacity="1"
     inkscape:showpageshadow="2"
     inkscape:pageopacity="0"
     inkscape:pagecheckerboard="0"
     inkscape:deskcolor="#d1d1d1"
     inkscape:document-units="px"
     inkscape:zoom="0.70710679"
     inkscape:cx="173.94827"
     inkscape:cy="229.10259"
     inkscape:window-width="1920"
     inkscape:window-height="1027"
     inkscape:window-x="0"
     inkscape:window-y="25"
     inkscape:window-maximized="1"
     inkscape:current-layer="layer6"
     showgrid="false"><inkscape:page
       x="0"
       y="0"
       width="800.00018"
       height="512.00012"
       id="page38"
       margin="0"
       bleed="0" /></sodipodi:namedview><defs
     id="defs1"><linearGradient
       id="swatch119"><stop
         style="stop-color:#000000;stop-opacity:1;"
         offset="0"
         id="stop119" /></linearGradient><inkscape:path-effect
       effect="spiro"
       id="path-effect51"
       is_visible="true"
       lpeversion="1" /><inkscape:path-effect
       effect="bspline"
       id="path-effect50"
       is_visible="true"
       lpeversion="1.3"
       weight="33.333333"
       steps="2"
       helper_size="0"
       apply_no_weight="true"
       apply_with_weight="true"
       only_selected="false"
       uniform="false" /><inkscape:path-effect
       effect="bspline"
       id="path-effect49"
       is_visible="true"
       lpeversion="1.3"
       weight="33.333333"
       steps="2"
       helper_size="0"
       apply_no_weight="true"
       apply_with_weight="true"
       only_selected="false"
       uniform="false" /><inkscape:path-effect
       effect="bspline"
       id="path-effect48"
       is_visible="true"
       lpeversion="1.3"
       weight="33.333333"
       steps="2"
       helper_size="0"
       apply_no_weight="true"
       apply_with_weight="true"
       only_selected="false"
       uniform="false" /><inkscape:path-effect
       effect="bspline"
       id="path-effect47"
       is_visible="true"
       lpeversion="1.3"
       weight="33.333333"
       steps="2"
       helper_size="0"
       apply_no_weight="true"
       apply_with_weight="true"
       only_selected="false"
       uniform="false" /><inkscape:path-effect
       effect="bspline"
       id="path-effect46"
       is_visible="true"
       lpeversion="1.3"
       weight="33.333333"
       steps="2"
       helper_size="0"
       apply_no_weight="true"
       apply_with_weight="true"
       only_selected="false"
       uniform="false" /><linearGradient
       id="swatch22"><stop
         style="stop-color:#fbb343;stop-opacity:1;"
         offset="0"
         id="stop22" /></linearGradient><linearGradient
       id="swatch32"><stop
         style="stop-color:#fbb343;stop-opacity:1;"
         offset="0"
         id="stop32" /></linearGradient><linearGradient
       id="swatch31"><stop
         style="stop-color:#fbb343;stop-opacity:1;"
         offset="0"
         id="stop31" /></linearGradient><linearGradient
       id="swatch11"><stop
         style="stop-color:#000000;stop-opacity:1;"
         offset="0"
         id="stop11" /></linearGradient><linearGradient
       id="swatch10"
       inkscape:swatch="solid"
       inkscape:label="jamboard-yellow"
       inkscape:pinned="true"
       gradientTransform="translate(23.32429,-6.54244)"><stop
         style="stop-color:#fbb343;stop-opacity:1;"
         offset="0"
         id="stop10" /></linearGradient><linearGradient
       id="swatch9"><stop
         style="stop-color:#ffffff;stop-opacity:1;"
         offset="0"
         id="stop9" /></linearGradient><linearGradient
       id="swatch8"><stop
         style="stop-color:#ffffff;stop-opacity:1;"
         offset="0"
         id="stop8" /></linearGradient><linearGradient
       id="swatch7"><stop
         style="stop-color:#ffffff;stop-opacity:1;"
         offset="0"
         id="stop7" /></linearGradient><linearGradient
       id="swatch6"
       inkscape:swatch="solid"
       inkscape:label="jamboard-red"
       inkscape:pinned="true"
       gradientTransform="matrix(0.74273902,0,0,0.38296691,192.28446,75.907002)"><stop
         style="stop-color:#e4483f;stop-opacity:1;"
         offset="0"
         id="stop6" /></linearGradient><linearGradient
       id="swatch5"><stop
         style="stop-color:#609d4a;stop-opacity:1;"
         offset="0"
         id="stop5" /></linearGradient><linearGradient
       id="swatch4"
       inkscape:swatch="solid"
       inkscape:label="jamboard-white"
       inkscape:pinned="true"
       gradientTransform="translate(-0.87499999,1.1017135)"><stop
         style="stop-color:#ffffff;stop-opacity:1;"
         offset="0"
         id="stop4" /></linearGradient><linearGradient
       id="swatch3"
       inkscape:swatch="solid"
       inkscape:label="jamboard-charcoal"
       gradientTransform="matrix(0.19753784,0.00452506,-0.00452506,0.19753784,-1351.4193,-47.439586)"
       inkscape:pinned="true"><stop
         style="stop-color:#262626;stop-opacity:1;"
         offset="0"
         id="stop3" /></linearGradient><linearGradient
       id="swatch2"
       inkscape:swatch="solid"
       inkscape:label="jamboard-green"
       inkscape:pinned="true"><stop
         style="stop-color:#609d4a;stop-opacity:1;"
         offset="0"
         id="stop2" /></linearGradient><linearGradient
       id="swatch1"
       inkscape:swatch="solid"
       inkscape:label="jamboard-azure"
       inkscape:pinned="true"
       gradientTransform="translate(-1.999944,-1.0625)"><stop
         style="stop-color:#00abbf;stop-opacity:1;"
         offset="0"
         id="stop1" /></linearGradient><inkscape:path-effect
       effect="bspline"
       id="path-effect50-6"
       is_visible="true"
       lpeversion="1.3"
       weight="33.333333"
       steps="2"
       helper_size="0"
       apply_no_weight="true"
       apply_with_weight="true"
       only_selected="false"
       uniform="false" /></defs><g
     inkscape:groupmode="layer"
     id="layer6"
     inkscape:label="Objects Slide 7"><g
       id="g160"
       inkscape:label="slime inside slime - normal"
       style="display:inline"><g
         id="g58"
         inkscape:label="dirt left of normal slime"><path
           style="fill:none;stroke:url(#swatch3);stroke-width:1.5;stroke-linecap:round;stroke-linejoin:round;stroke-dasharray:none"
           d="m 105.53569,470.04923 c -3.66303,-0.76253 -6.601399,2.148 -10.253052,1.59099"
           id="path53" /><path
           style="fill:none;stroke:url(#swatch3);stroke-width:1.5;stroke-linecap:round;stroke-linejoin:round;stroke-dasharray:none"
           d="m 89.449007,471.46344 c -1.456996,-0.14273 0.974819,0.20071 -0.966459,-1.22404 -2.376879,-1.25995 -5.638612,0.92398 -8.225929,0.69371"
           id="path54" /><path
           style="fill:none;stroke:url(#swatch3);stroke-width:1.5;stroke-linecap:round;stroke-linejoin:round;stroke-dasharray:none"
           d="m 75.837201,471.28666 c -0.641375,-0.12812 -1.368088,0.25784 -1.944543,-0.17677"
           id="path55" /><path
           style="fill:none;stroke:url(#swatch3);stroke-width:1.5;stroke-linecap:round;stroke-linejoin:round;stroke-dasharray:none"
           d="m 70.003571,471.10989 c -2.240765,-0.73661 -5.899711,-2.52689 -7.601398,-1.06066 -1.717806,1.86363 -4.794773,2.36556 -7.247845,2.82842 -2.663885,-0.22162 -6.507966,0.59069 -8.972893,-1.03125 -2.271815,-1.30034 -4.640531,-2.51957 -7.113786,-3.38816"
           id="path56" /><path
           style="fill:none;stroke:url(#swatch3);stroke-width:1.5;stroke-linecap:round;stroke-linejoin:round;stroke-dasharray:none"
           d="m 35.178562,468.28146 c -2.084233,-0.0952 -3.265234,2.84827 -5.4607,3.1242 -0.424196,-0.17265 -0.695868,0.25547 -1.080038,0.23456"
           id="path57" /><path
           style="fill:none;stroke:url(#swatch3);stroke-width:1.5;stroke-linecap:round;stroke-linejoin:round;stroke-dasharray:none"
           d="m 25.455844,473.05443 c -2.989871,-0.43587 -5.935801,-2.09202 -9.192388,-1.06066 -3.362937,0.24175 -6.116717,2.22201 -9.369165,3.00521 -1.8528901,0.49283 -3.5024061,-0.54643 -5.3033008,-0.35356"
           id="path58" /></g><g
         id="g53"
         inkscape:label="dirt right of normal slime"
         style="display:inline"><path
           style="display:inline;fill:none;stroke:url(#swatch3);stroke-width:1.5;stroke-linecap:round;stroke-linejoin:round;stroke-dasharray:none"
           d="m 685.76307,474.17177 c 8.02767,-2.18187 19.71625,-5.48294 28.06973,-2.87353 2.63624,0.49927 5.29412,0.88323 7.91719,1.45174"
           id="path43"
           sodipodi:nodetypes="ccc" /><path
           style="display:inline;fill:none;stroke:url(#swatch3);stroke-width:1.5;stroke-linecap:round;stroke-linejoin:round;stroke-dasharray:none"
           d="m 729.74999,472.99999 c 1.30979,1.20249 3.24277,0.32041 4.75,1"
           id="path44" /><path
           style="display:inline;fill:none;stroke:url(#swatch3);stroke-width:1.5;stroke-linecap:round;stroke-linejoin:round;stroke-dasharray:none"
           d="m 746.99999,474.24999 c 6.62268,0.37634 13.25459,-0.59393 19.65539,-1.90894 5.22029,-2.78155 10.45108,-6.22504 16.34461,-2.59106"
           id="path45" /><path
           style="display:inline;fill:none;stroke:url(#swatch3);stroke-width:1.5;stroke-linecap:round;stroke-linejoin:round;stroke-dasharray:none"
           d="m 788.74999,471.74999 c 3.20285,-1.42946 5.95553,1.63202 9,1.99998"
           id="path46" /></g><path
         style="font-variation-settings:normal;opacity:1;fill:none;fill-opacity:1;stroke:url(#swatch3);stroke-width:3;stroke-linecap:round;stroke-linejoin:round;stroke-miterlimit:4;stroke-dasharray:none;stroke-dashoffset:0;stroke-opacity:1"
         d="m 63.993163,411.53615 c 0.02329,14.48502 14.335263,65.51711 60.364407,58.53256 46.02914,-6.98455 86.28677,-5.12261 166.97594,-10.95303 80.68917,-5.83042 244.74801,33.74113 314.88022,24.03848 70.13221,-9.70265 103.92139,3.19567 93.68551,-46.36184 -10.23588,-49.55751 0.34127,-94.33175 -19.79221,-137.52042 -20.13348,-43.18867 -35.8647,-81.55573 -85.00489,-111.53481 -49.14019,-29.97908 -107.81213,-47.36294 -187.42073,-44.44119 -79.6086,2.92175 -212.30792,31.09594 -267.11828,85.87287 -88.075604,88.02188 -76.593254,167.88235 -76.569967,182.36738 z"
         id="path136"
         sodipodi:nodetypes="zzzzzzzzzz"
         inkscape:label="outer slime outline" /><path
         style="font-variation-settings:normal;opacity:1;fill:none;fill-opacity:1;stroke:url(#swatch3);stroke-width:3;stroke-linecap:round;stroke-linejoin:round;stroke-miterlimit:4;stroke-dasharray:none;stroke-dashoffset:0;stroke-opacity:1"
         d="m 217.78889,412.95036 c 35.74436,-1.28999 105.52003,-4.4062 149.58503,4.82567 44.065,9.23187 76.83767,-15.18176 116.38359,-4.22617 39.54592,10.95559 88.22125,31.20315 123.07407,19.07309 34.85282,-12.13006 33.74726,-44.03315 24.32531,-78.42225 -9.42195,-34.3891 -48.87254,-70.17613 -82.25467,-86.89304 -33.38213,-16.71691 -46.21053,-25.50837 -97.36124,-33.21242 -51.15071,-7.70405 -154.47078,0.79851 -203.8163,29.76202 -49.34552,28.96351 -65.42687,80.31207 -62.0651,112.09293 3.36177,31.78086 -3.61505,38.29016 32.12931,37.00017 z"
         id="path137"
         sodipodi:nodetypes="zzzzzzzzzz"
         inkscape:label="inner slime outline" /><g
         id="g142"
         inkscape:label="outer slime face"><g
           id="g139"
           inkscape:label="eye 1"><path
             style="font-variation-settings:normal;opacity:1;fill:none;fill-opacity:1;stroke:url(#swatch6);stroke-width:3;stroke-linecap:round;stroke-linejoin:round;stroke-miterlimit:4;stroke-dasharray:none;stroke-dashoffset:0;stroke-opacity:1"
             d="m 313.07153,165.02104 c -9.4005,3.368 -8.41679,16.44703 -2.54704,22.64241 5.12836,6.26715 16.66008,5.42128 19.56666,-2.52478 3.85661,-9.79475 -5.30799,-23.08974 -16.2769,-20.29057 z"
             id="path138" /><path
             style="font-variation-settings:normal;opacity:1;fill:none;fill-opacity:1;stroke:url(#swatch6);stroke-width:3;stroke-linecap:round;stroke-linejoin:round;stroke-miterlimit:4;stroke-dasharray:none;stroke-dashoffset:0;stroke-opacity:1"
             d="m 313.07153,165.02104 c -5.38993,2.46663 -5.91553,13.13849 -1.1461,19.99873 4.76943,6.86024 14.69029,2.83546 14.42647,-6.31223 -0.26382,-9.14769 -11.53206,-16.85444 -15.75436,-9.04268 -4.2223,7.81176 5.22231,19.12935 12.60636,16.27249 7.38405,-2.85686 5.2503,-14.34352 -1.70725,-18.32109 -6.95755,-3.97757 -16.53473,9.27671 -7.9634,13.87732 8.57133,4.60061 9.83106,-13.76517 1.38892,-8.52511 -8.44214,5.24006 6.59162,15.99805 6.84147,6.57075 0.24985,-9.4273 -11.7486,-0.0404 -5.0695,4.18693 6.6791,4.2273 9.4405,-12.20796 1.66674,-9.25275 -7.77376,2.95521 3.41093,11.76295 4.45649,3.21402 1.04556,-8.54893 -8.96445,-8.63876 -9.53785,-0.63008 -0.5734,8.00868 1.57927,17.86199 10.0732,14.66795 8.49393,-3.19404 4.11083,-13.84703 -4.8261,-13.58542 -8.93693,0.26161 1.18842,11.78097 4.85689,2.17709 3.66847,-9.60388 -11.40438,-15.26482 -12.15746,-5.54536 -0.75308,9.71946 10.37287,13.09663 15.99097,7.71268 5.6181,-5.38395 -3.87168,-16.93865 -8.98358,-11.34516 -5.1119,5.59349 -6.61417,17.43511 2.02401,18.36754 8.63819,0.93243 6.92999,-13.32922 1.04607,-18.70847 -5.88392,-5.37925 -14.25928,5.66338 -5.94581,10.18622 8.31347,4.52284 12.46903,-5.15676 8.36368,-10.15175 -4.10535,-4.99499 -5.25993,-8.27825 -10.64986,-5.81162 z"
             id="path139"
             sodipodi:nodetypes="zzzzzzzzzzzzzzzzzzzzzzzz" /></g><g
           id="g141"
           inkscape:label="eye 2"><path
             style="font-variation-settings:normal;opacity:1;fill:none;fill-opacity:1;stroke:url(#swatch6);stroke-width:3;stroke-linecap:round;stroke-linejoin:round;stroke-miterlimit:4;stroke-dasharray:none;stroke-dashoffset:0;stroke-opacity:1"
             d="m 395.5,157.75 c -3.71168,-0.0747 -12.26445,4.74235 -13.02315,10.04402 -0.7587,5.30167 -0.8652,10.44587 2.56314,13.47571 3.42834,3.02984 6.17233,2.94085 11.58698,2.16843 5.41465,-0.77242 11.39484,-9.26224 11.40043,-15.35266 0.006,-6.09042 -5.89055,-10.30981 -9.08485,-10.58899 -3.1943,-0.27918 0.26913,0.3282 -3.44255,0.25349 z"
             id="path140"
             sodipodi:nodetypes="zzzzzzz" /><path
             style="font-variation-settings:normal;opacity:1;fill:none;fill-opacity:1;stroke:url(#swatch6);stroke-width:3;stroke-linecap:round;stroke-linejoin:round;stroke-miterlimit:4;stroke-dasharray:none;stroke-dashoffset:0;stroke-opacity:1"
             d="m 397.21154,157.69179 c 0.39467,1.03927 -0.31539,2.12973 -1.3297,2.42868 -1.86929,0.60142 -3.81825,1.00584 -5.57578,1.92035 -2.75782,1.25639 -5.02272,3.78364 -5.45774,6.8448 -0.42416,2.73891 0.0441,5.53639 0.70539,8.19747 0.49435,1.52988 1.92989,2.86497 3.61829,2.72494 1.58437,0.11756 3.10929,0.94749 4.72138,0.57074 2.45817,-0.0986 4.74304,-1.36773 6.35276,-3.18935 1.64379,-1.51219 3.33034,-3.41704 3.25499,-5.79851 0.15323,-1.83468 0.86232,-3.675 0.52239,-5.51732 -0.65571,-1.68405 -1.27933,-3.52902 -2.84769,-4.59813 -1.71688,-1.36156 -4.35917,-2.04456 -6.26311,-0.65983 -2.21806,0.98992 -4.75194,2.04987 -5.78129,4.43559 -1.2577,2.2724 -2.46226,5.13039 -1.1959,7.65767 1.45478,2.12834 3.72145,3.79255 6.33039,4.07644 2.14363,0.53256 4.06587,-1.15075 5.09243,-2.86923 1.13674,-1.84559 1.79427,-4.00321 1.89471,-6.16314 -0.20696,-2.24385 -1.82342,-4.73566 -4.27614,-4.79703 -2.19011,-0.0365 -3.58713,1.89933 -4.99367,3.28587 -1.77795,1.97058 -2.48201,5.33203 -0.59095,7.46428 1.04451,1.05595 2.89808,1.88477 4.23045,0.86283 1.63156,-1.67097 2.39149,-4.13378 2.14724,-6.44355 -0.6704,-1.5365 -2.02538,0.42018 -2.34829,1.26091 -0.52933,0.87771 -0.62445,2.55148 0.67249,2.75655 1.15642,0.2038 2.01736,-0.97224 1.86612,-2.04453 0.20185,-1.28381 -1.15676,-2.82526 -2.47625,-2.29434 -0.79744,0.8465 -1.64319,2.5736 -0.78505,3.62179 1.29228,0.47002 2.50938,-0.97892 2.48509,-2.21093 0.0871,-1.40742 -0.76937,-3.04054 -2.2671,-3.26204 -2.11483,0.35713 -3.13751,2.56187 -3.60653,4.43245 -0.51316,1.48726 -1.1372,3.28095 -0.31186,4.76437 0.9171,1.14848 2.55476,0.53459 3.73977,0.26622 1.95087,-0.54441 4.08601,-1.79628 4.47932,-3.94666 0.16303,-1.78569 -0.74276,-4.05202 -2.7381,-4.28821 -2.18759,-0.26649 -4.05848,1.33258 -5.34843,2.9152 -1.02856,1.61863 -1.80137,3.4198 -2.11707,5.3182 -0.68777,0.83876 -0.49326,2.21775 0.53136,2.68491 1.64565,0.82316 3.66305,0.25731 5.13037,-0.69838 2.30575,-1.54841 3.59492,-4.41385 3.27097,-7.16794 -0.0256,-1.80027 0.0117,-4.06727 -1.71277,-5.1516 -1.50009,-0.9341 -3.80103,-1.31924 -5.08334,0.17855 -1.55143,2.01498 -1.20401,4.75266 -2.28803,6.97445 -0.5088,1.28187 -0.75288,3.08603 0.54587,3.99409 2.59339,1.96519 6.35298,2.92254 9.34784,1.29863 1.33871,-0.80353 2.13702,-2.24708 2.95483,-3.53268 0.61092,-1.14999 1.39286,-2.28465 1.40259,-3.63392 0.13616,-1.5061 0.20389,-3.11756 -0.37748,-4.53562 -1.10367,-1.63197 -2.64431,-2.98382 -4.38181,-3.89973 -2.88732,-1.1694 -6.39859,-0.23972 -8.4316,2.09199 -1.54592,1.31606 -3.37898,2.57855 -3.96221,4.63879 -1.37452,3.35945 -0.99692,7.31714 0.68493,10.49417 0.56482,0.9868 1.47994,1.85134 2.67909,1.83837 1.53678,0.18322 3.09338,0.46476 4.64124,0.35544 1.57179,-0.2797 3.00365,-1.05516 4.48325,-1.60478 1.26852,-0.91358 2.33711,-2.10388 3.38343,-3.24976 0.86827,-1.34155 1.13688,-2.96432 1.92254,-4.34748 1.12801,-3.01984 2.11996,-6.4293 1.02388,-9.60264 -0.74889,-1.83097 -2.55179,-3.08195 -4.47848,-3.39684 -0.91779,-0.4758 -3.5626,0.008 -3.08903,-1.45059 z"
             id="path141" /></g><path
           style="font-variation-settings:normal;opacity:1;fill:none;fill-opacity:1;stroke:url(#swatch6);stroke-width:3;stroke-linecap:round;stroke-linejoin:round;stroke-miterlimit:4;stroke-dasharray:none;stroke-dashoffset:0;stroke-opacity:1"
           d="m 336.22927,213.81141 c 11.04932,-10.82408 28.73752,-12.59919 38.13176,-11.9747 9.39424,0.62449 12.72879,2.46798 16.31547,4.72642"
           id="path142"
           sodipodi:nodetypes="czc"
           inkscape:label="mouth" /></g><g
         id="g152"
         inkscape:label="question marks"><path
           style="font-variation-settings:normal;opacity:1;fill:none;fill-opacity:1;stroke:url(#swatch6);stroke-width:3;stroke-linecap:round;stroke-linejoin:round;stroke-miterlimit:4;stroke-dasharray:none;stroke-dashoffset:0;stroke-opacity:1"
           d="m 281.19014,78.499576 c 0.67884,-4.585496 6.61276,-7.277659 10.818,-7.928118 4.20524,-0.650459 8.54423,0.699896 10.75948,4.019424 2.21525,3.319528 2.51638,7.808843 1.37668,11.41098 -2.56898,7.606129 -6.12328,14.659398 -7.56446,22.585798 -1.21487,7.33157 2.96269,9.61264 9.51997,10.50622"
           id="path143"
           sodipodi:nodetypes="czzzzz" /><path
           style="font-variation-settings:normal;opacity:1;fill:none;fill-opacity:1;stroke:url(#swatch6);stroke-width:3;stroke-linecap:round;stroke-linejoin:round;stroke-miterlimit:4;stroke-dasharray:none;stroke-dashoffset:0;stroke-opacity:1"
           d="m 344.361,68.953834 c -2.93469,-4.719953 6.37032,-4.788378 10.26615,-4.475318 3.89583,0.31306 5.09859,2.644403 5.77948,7.116045 0.68089,4.471642 -3.8375,10.382946 -5.5236,14.002712 -1.6861,3.619766 -2.17645,6.065056 -2.65546,9.4202 -0.47901,3.355144 -0.15855,7.382377 0.59661,9.921597 0.75516,2.53922 1.14004,2.96466 2.16552,3.99957"
           id="path144"
           sodipodi:nodetypes="czzzzzz" /><path
           style="font-variation-settings:normal;opacity:1;fill:none;fill-opacity:1;stroke:url(#swatch6);stroke-width:3;stroke-linecap:round;stroke-linejoin:round;stroke-miterlimit:4;stroke-dasharray:none;stroke-dashoffset:0;stroke-opacity:1"
           d="m 399.78125,62.121843 c 3.65029,-1.978218 8.97476,-1.907915 11.61244,-0.770527 2.63768,1.137388 4.45883,2.584193 4.87123,5.95641 1.04871,8.575366 -1.15468,15.251765 -4.552,22.273864 -3.13448,5.885726 -7.16017,13.7545 -5.61266,24.13002"
           id="path145"
           sodipodi:nodetypes="czszz" /><circle
           style="font-variation-settings:normal;opacity:1;fill:url(#swatch6);fill-opacity:1;stroke:none;stroke-width:3;stroke-linecap:round;stroke-linejoin:round;stroke-miterlimit:4;stroke-dasharray:none;stroke-dashoffset:0;stroke-opacity:1"
           id="path146"
           cx="310.50827"
           cy="137.93002"
           r="1.9887378" /><circle
           style="font-variation-settings:normal;opacity:1;fill:url(#swatch6);fill-opacity:1;stroke:none;stroke-width:2.44068;stroke-linecap:round;stroke-linejoin:round;stroke-miterlimit:4;stroke-dasharray:none;stroke-dashoffset:0;stroke-opacity:1"
           id="path147"
           cx="360.21967"
           cy="129.08081"
           r="3" /><circle
           style="font-variation-settings:normal;opacity:1;fill:url(#swatch6);fill-opacity:1;stroke:none;stroke-width:3;stroke-linecap:round;stroke-linejoin:round;stroke-miterlimit:4;stroke-dasharray:none;stroke-dashoffset:0;stroke-opacity:1"
           id="path148"
           cx="406.29913"
           cy="131.36719"
           r="3.4692426" /></g><g
         id="g151"
         inkscape:label="inner slime face"><path
           style="font-variation-settings:normal;opacity:1;fill:url(#swatch10);fill-opacity:1;stroke:none;stroke-width:3;stroke-linecap:round;stroke-linejoin:round;stroke-miterlimit:4;stroke-dasharray:none;stroke-dashoffset:0;stroke-opacity:1"
           d="m 278.24422,281.24368 c -0.66884,1.83645 -0.0563,3.96204 1.29298,5.32918 1.22837,1.30346 3.07838,2.01092 4.86244,1.75941 1.54996,0.0221 3.02321,-0.89875 3.76557,-2.24496 0.93755,-1.62171 1.00416,-3.69508 0.21119,-5.38684 -0.68971,-2.17681 -2.75759,-3.87012 -5.03553,-4.08396 -1.37693,-0.1384 -2.77162,0.49568 -3.61126,1.58799 -0.72318,0.88058 -1.18386,1.94799 -1.48539,3.03918 z"
           id="path149" /><path
           style="font-variation-settings:normal;opacity:1;fill:url(#swatch10);fill-opacity:1;stroke:none;stroke-width:3;stroke-linecap:round;stroke-linejoin:round;stroke-miterlimit:4;stroke-dasharray:none;stroke-dashoffset:0;stroke-opacity:1"
           d="m 305.65625,270.65625 c -2.91717,0.76597 -4.79225,3.96961 -4.42125,6.8941 0.21635,2.01023 1.87414,3.84803 3.94216,3.9746 1.90166,0.16068 3.55581,-1.16914 4.56543,-2.66295 0.87759,-1.35553 1.52546,-2.96974 1.39625,-4.60887 -0.2811,-1.9487 -2.13482,-3.30531 -3.99712,-3.56905 -0.49077,-0.0766 -0.99226,-0.0888 -1.48547,-0.0278 z"
           id="path150" /><path
           style="font-variation-settings:normal;opacity:1;fill:none;fill-opacity:1;stroke:url(#swatch10);stroke-width:3;stroke-linecap:round;stroke-linejoin:round;stroke-miterlimit:4;stroke-dasharray:none;stroke-dashoffset:0;stroke-opacity:1"
           d="m 316.56287,289.38345 c -14.02812,-0.92192 -18.42898,0.70602 -25.10243,10.73941"
           id="path151"
           sodipodi:nodetypes="cc" /></g><g
         id="g159"
         inkscape:label="sword"><path
           id="path152"
           style="font-variation-settings:normal;opacity:1;fill:none;fill-opacity:1;stroke:url(#swatch3);stroke-width:3;stroke-linecap:round;stroke-linejoin:round;stroke-miterlimit:4;stroke-dasharray:none;stroke-dashoffset:0;stroke-opacity:1"
           d="m 343.65389,350.90174 c -11.83398,-1.66026 -25.59102,6.88238 -32.49861,17.78854 -6.30003,9.94691 25.75357,8.00343 39.39292,-5.59095"
           sodipodi:nodetypes="csc" /><path
           style="font-variation-settings:normal;opacity:1;fill:none;fill-opacity:1;stroke:url(#swatch3);stroke-width:3;stroke-linecap:round;stroke-linejoin:round;stroke-miterlimit:4;stroke-dasharray:none;stroke-dashoffset:0;stroke-opacity:1"
           d="m 338.27889,342.02674 c -2.74557,-4.28972 -3.42745,-7.70746 5.1319,-1.57966 8.38741,6.00471 14.76262,18.03353 16.07979,28.36959 1.42025,11.14497 -3.69758,5.15308 -6.48881,-1.80421 -2.319,-5.78022 -11.37692,-19.75795 -14.72288,-24.98572 z"
           id="path153"
           sodipodi:nodetypes="sssss" /><path
           style="font-variation-settings:normal;opacity:1;fill:none;fill-opacity:1;stroke:url(#swatch3);stroke-width:3;stroke-linecap:round;stroke-linejoin:round;stroke-miterlimit:4;stroke-dasharray:none;stroke-dashoffset:0;stroke-opacity:1"
           d="m 344.85028,352.40049 c -3.14355,3.66161 -2.05175,9.89787 -0.84279,11.31757"
           id="path154"
           sodipodi:nodetypes="cc" /><path
           style="font-variation-settings:normal;opacity:1;fill:none;fill-opacity:1;stroke:url(#swatch3);stroke-width:3;stroke-linecap:round;stroke-linejoin:round;stroke-miterlimit:4;stroke-dasharray:none;stroke-dashoffset:0;stroke-opacity:1"
           d="m 338.96931,353.11145 c -0.83702,4.68906 -2.87416,11.01858 1.23742,14.31893"
           id="path155"
           sodipodi:nodetypes="cc" /><path
           style="font-variation-settings:normal;opacity:1;fill:none;fill-opacity:1;stroke:url(#swatch3);stroke-width:3;stroke-linecap:round;stroke-linejoin:round;stroke-miterlimit:4;stroke-dasharray:none;stroke-dashoffset:0;stroke-opacity:1"
           d="m 333.93118,356.0621 c -2.29873,3.40419 -2.70204,9.25265 -0.44192,10.92632"
           id="path156"
           sodipodi:nodetypes="cc" /><path
           style="font-variation-settings:normal;opacity:1;fill:none;fill-opacity:1;stroke:url(#swatch3);stroke-width:3;stroke-linecap:round;stroke-linejoin:round;stroke-miterlimit:4;stroke-dasharray:none;stroke-dashoffset:0;stroke-opacity:1"
           d="m 329.33498,357.53087 c -3.80447,3.79407 -5.66026,10.11455 -2.82844,13.43503"
           id="path157"
           sodipodi:nodetypes="cc" /><path
           style="font-variation-settings:normal;opacity:1;fill:none;fill-opacity:1;stroke:url(#swatch3);stroke-width:3;stroke-linecap:round;stroke-linejoin:round;stroke-miterlimit:4;stroke-dasharray:none;stroke-dashoffset:0;stroke-opacity:1"
           d="m 320.14259,362.82494 c -0.70393,3.16411 -2.07971,6.32755 -1.50261,9.64096"
           id="path158" /><path
           style="font-variation-settings:normal;opacity:1;fill:none;fill-opacity:1;stroke:url(#swatch3);stroke-width:3;stroke-linecap:round;stroke-linejoin:round;stroke-miterlimit:4;stroke-dasharray:none;stroke-dashoffset:0;stroke-opacity:1"
           d="m 357.9728,361.52526 c 0,0 79.51629,-30.63056 140.00715,-39.26135 -8.98368,-5.61881 -22.08539,-9.98683 -66.29126,-0.35355 -27.56629,6.00722 -79.64049,27.27791 -79.64049,27.27791"
           id="path159"
           sodipodi:nodetypes="ccsc" /></g></g></g></svg>
