<?xml version="1.0" encoding="UTF-8" standalone="no"?>
<!-- Created with Inkscape (http://www.inkscape.org/) -->

<svg
   width="450.68921"
   height="292.79691"
   viewBox="0 0 450.68933 292.79696"
   version="1.1"
   id="svg1"
   xml:space="preserve"
   inkscape:version="1.3.2 (091e20e, 2023-11-25)"
   sodipodi:docname="slime-with-crystal.svg"
   xmlns:inkscape="http://www.inkscape.org/namespaces/inkscape"
   xmlns:sodipodi="http://sodipodi.sourceforge.net/DTD/sodipodi-0.dtd"
   xmlns="http://www.w3.org/2000/svg"
   xmlns:svg="http://www.w3.org/2000/svg"><sodipodi:namedview
     id="namedview1"
     pagecolor="#ffffff"
     bordercolor="#999999"
     borderopacity="1"
     inkscape:showpageshadow="2"
     inkscape:pageopacity="0"
     inkscape:pagecheckerboard="0"
     inkscape:deskcolor="#d1d1d1"
     inkscape:document-units="px"
     inkscape:zoom="0.70710679"
     inkscape:cx="295.57063"
     inkscape:cy="147.78532"
     inkscape:window-width="1808"
     inkscape:window-height="868"
     inkscape:window-x="0"
     inkscape:window-y="25"
     inkscape:window-maximized="0"
     inkscape:current-layer="layer4"
     showgrid="false"><inkscape:page
       x="0"
       y="0"
       width="450.68933"
       height="292.79697"
       id="page38"
       margin="0"
       bleed="0" /></sodipodi:namedview><defs
     id="defs1"><linearGradient
       id="swatch119"><stop
         style="stop-color:#000000;stop-opacity:1;"
         offset="0"
         id="stop119" /></linearGradient><inkscape:path-effect
       effect="spiro"
       id="path-effect51"
       is_visible="true"
       lpeversion="1" /><inkscape:path-effect
       effect="bspline"
       id="path-effect50"
       is_visible="true"
       lpeversion="1.3"
       weight="33.333333"
       steps="2"
       helper_size="0"
       apply_no_weight="true"
       apply_with_weight="true"
       only_selected="false"
       uniform="false" /><inkscape:path-effect
       effect="bspline"
       id="path-effect49"
       is_visible="true"
       lpeversion="1.3"
       weight="33.333333"
       steps="2"
       helper_size="0"
       apply_no_weight="true"
       apply_with_weight="true"
       only_selected="false"
       uniform="false" /><inkscape:path-effect
       effect="bspline"
       id="path-effect48"
       is_visible="true"
       lpeversion="1.3"
       weight="33.333333"
       steps="2"
       helper_size="0"
       apply_no_weight="true"
       apply_with_weight="true"
       only_selected="false"
       uniform="false" /><inkscape:path-effect
       effect="bspline"
       id="path-effect47"
       is_visible="true"
       lpeversion="1.3"
       weight="33.333333"
       steps="2"
       helper_size="0"
       apply_no_weight="true"
       apply_with_weight="true"
       only_selected="false"
       uniform="false" /><inkscape:path-effect
       effect="bspline"
       id="path-effect46"
       is_visible="true"
       lpeversion="1.3"
       weight="33.333333"
       steps="2"
       helper_size="0"
       apply_no_weight="true"
       apply_with_weight="true"
       only_selected="false"
       uniform="false" /><linearGradient
       id="swatch22"><stop
         style="stop-color:#fbb343;stop-opacity:1;"
         offset="0"
         id="stop22" /></linearGradient><linearGradient
       id="swatch32"><stop
         style="stop-color:#fbb343;stop-opacity:1;"
         offset="0"
         id="stop32" /></linearGradient><linearGradient
       id="swatch31"><stop
         style="stop-color:#fbb343;stop-opacity:1;"
         offset="0"
         id="stop31" /></linearGradient><linearGradient
       id="swatch11"><stop
         style="stop-color:#000000;stop-opacity:1;"
         offset="0"
         id="stop11" /></linearGradient><linearGradient
       id="swatch10"
       inkscape:swatch="solid"
       inkscape:label="jamboard-yellow"
       inkscape:pinned="true"
       gradientTransform="translate(23.32429,-6.54244)"><stop
         style="stop-color:#fbb343;stop-opacity:1;"
         offset="0"
         id="stop10" /></linearGradient><linearGradient
       id="swatch9"><stop
         style="stop-color:#ffffff;stop-opacity:1;"
         offset="0"
         id="stop9" /></linearGradient><linearGradient
       id="swatch8"><stop
         style="stop-color:#ffffff;stop-opacity:1;"
         offset="0"
         id="stop8" /></linearGradient><linearGradient
       id="swatch7"><stop
         style="stop-color:#ffffff;stop-opacity:1;"
         offset="0"
         id="stop7" /></linearGradient><linearGradient
       id="swatch6"
       inkscape:swatch="solid"
       inkscape:label="jamboard-red"
       inkscape:pinned="true"
       gradientTransform="matrix(0.74273902,0,0,0.38296691,192.28446,75.907002)"><stop
         style="stop-color:#e4483f;stop-opacity:1;"
         offset="0"
         id="stop6" /></linearGradient><linearGradient
       id="swatch5"><stop
         style="stop-color:#609d4a;stop-opacity:1;"
         offset="0"
         id="stop5" /></linearGradient><linearGradient
       id="swatch4"
       inkscape:swatch="solid"
       inkscape:label="jamboard-white"
       inkscape:pinned="true"
       gradientTransform="translate(-0.87499999,1.1017135)"><stop
         style="stop-color:#ffffff;stop-opacity:1;"
         offset="0"
         id="stop4" /></linearGradient><linearGradient
       id="swatch3"
       inkscape:swatch="solid"
       inkscape:label="jamboard-charcoal"
       gradientTransform="matrix(0.19753784,0.00452506,-0.00452506,0.19753784,-548.48168,-47.439586)"
       inkscape:pinned="true"><stop
         style="stop-color:#262626;stop-opacity:1;"
         offset="0"
         id="stop3" /></linearGradient><linearGradient
       id="swatch2"
       inkscape:swatch="solid"
       inkscape:label="jamboard-green"
       inkscape:pinned="true"><stop
         style="stop-color:#609d4a;stop-opacity:1;"
         offset="0"
         id="stop2" /></linearGradient><linearGradient
       id="swatch1"
       inkscape:swatch="solid"
       inkscape:label="jamboard-azure"
       inkscape:pinned="true"
       gradientTransform="translate(-1.999944,-1.0625)"><stop
         style="stop-color:#00abbf;stop-opacity:1;"
         offset="0"
         id="stop1" /></linearGradient><inkscape:path-effect
       effect="bspline"
       id="path-effect50-6"
       is_visible="true"
       lpeversion="1.3"
       weight="33.333333"
       steps="2"
       helper_size="0"
       apply_no_weight="true"
       apply_with_weight="true"
       only_selected="false"
       uniform="false" /></defs><g
     inkscape:groupmode="layer"
     id="layer4"
     inkscape:label="Objects Slide 5"
     style="display:inline"><path
       style="display:inline;opacity:1;fill:none;stroke:url(#swatch3);stroke-width:2.5;stroke-linecap:round;stroke-linejoin:round;stroke-dasharray:none"
       d="m 76.236345,263.99011 c 103.241125,-0.23075 177.984645,-1.08846 280.114255,0.17038 87.88106,1.08322 81.07682,-104.77916 55.45528,-140.81555 C 310.20513,-19.555334 125.68359,-2.780952 43.381462,113.46342 18.385118,148.76851 -1.143469,264.16305 76.236345,263.99011 Z"
       id="path59"
       sodipodi:nodetypes="sssss"
       inkscape:label="slime outline"
       sodipodi:insensitive="true" /><g
       id="g93"
       inkscape:label="red crystal"
       transform="translate(10.466625,-254.16809)"
       style="display:inline"><g
         id="g92"
         inkscape:label="crystal outline"><path
           style="opacity:1;fill:none;stroke:url(#swatch6);stroke-width:2.5;stroke-linecap:round;stroke-linejoin:round;stroke-dasharray:none"
           d="m 175.09732,458.38197 c -1.80569,-2.04012 -4.07347,-6.97117 -4.94455,-9.35875 -3.53611,-9.69229 -8.29292,-15.19363 -11.05037,-25.73161 3.38216,1.67329 9.42367,4.14751 12.90132,5.56865 5.01233,2.04828 9.53327,5.42091 12.9047,9.72272 1.85798,2.3707 2.70849,5.3812 2.82843,8.3085 0.13256,3.23523 -4.73261,1.61264 -6.54074,3.00521 -1.15773,0.89165 -2.79101,2.11599 -2.12132,4.33103 0.98024,3.24222 4.8352,3.36393 7.25825,2.78866 2.57043,-0.61026 4.86703,0.36133 6.88389,1.54237 1.89826,1.11159 1.80292,4.28589 5.3033,2.47487 1.92701,-0.99699 5.97473,4.06541 5.48551,-0.30822 -0.29367,-2.6254 -0.66277,-5.86799 1.9394,-7.49035 3.20047,-1.99537 6.89275,-3.16955 9.8992,-5.45968 2.38007,-1.81299 4.97088,-3.20698 7.49327,-4.45988 3.03677,-1.5084 6.33355,-2.48354 9.30052,-4.0254 3.11373,-1.61813 7.50322,-4.87988 10.16466,-6.98268 -3.57661,-1.23985 -8.31314,0.29533 -12.03952,0.82347 -3.58035,0.50745 -6.95156,-1.17915 -10.32273,0.32558 -2.74023,1.22311 -4.62632,4.0361 -7.95495,3.88908 -3.22953,-0.14264 -3.70961,-0.2923 -8.80529,0.42303 -3.99574,0.56091 -5.95808,-0.0224 -7.90011,3.2009"
           id="path60"
           sodipodi:nodetypes="cscssssssssssssscssssc" /><path
           style="opacity:1;fill:none;stroke:url(#swatch6);stroke-width:2.5;stroke-linecap:round;stroke-linejoin:round;stroke-dasharray:none"
           d="m 188.09041,446.36115 c 4.94636,-1.55781 8.75557,-5.48458 10.30146,-10.20461 1.78218,-5.4415 4.1052,-10.09461 6.87767,-15.07218 -2.59256,1.04864 -4.60209,-1.01639 -5.35153,-4.5795 -1.21338,-5.76882 -6.88098,-9.95512 -7.05466,-18.75729"
           id="path61"
           sodipodi:nodetypes="cscsc" /><path
           style="opacity:1;fill:none;stroke:url(#swatch6);stroke-width:2.5;stroke-linecap:round;stroke-linejoin:round;stroke-dasharray:none"
           d="m 177.30703,431.20255 c 1.75674,-13.3813 -2.96391,-27.13176 -0.3064,-40.36042 0.80889,-4.02654 5.50122,1.977 6.89224,3.69215 2.53967,3.13145 4.37749,2.79389 6.85146,0.1087 8.61523,-10.5383 17.03145,-19.13069 29.52399,-28.89053 1.97202,4.50154 0.87993,6.35038 1.25173,9.24846 1.23948,9.66128 4.36848,15.98801 3.79746,25.69175 -0.39905,6.78123 -14.09765,14.21052 -20.87526,19.41714"
           id="path62"
           sodipodi:nodetypes="cssscssc" /><path
           style="opacity:1;fill:none;stroke:url(#swatch6);stroke-width:2.5;stroke-linecap:round;stroke-linejoin:round;stroke-dasharray:none"
           d="m 227.33483,404.99541 c 7.77989,-0.4002 13.34328,-0.92448 23.51371,-1.23308 -1.03252,1.73784 -2.43079,3.86661 -13.13529,17.39139 -1.85948,3.8735 -7.61529,10.23289 -7.90351,11.77241"
           id="path63"
           sodipodi:nodetypes="ccsc" /></g><g
         id="g91"
         inkscape:label="background"><path
           style="opacity:1;fill:none;stroke:url(#swatch6);stroke-width:2.5;stroke-linecap:round;stroke-linejoin:round;stroke-dasharray:none"
           d="m 221.23603,368.13747 c 1.25371,9.57531 6.86167,23.27027 9.95437,31.77675 -0.61189,1.7524 -1.93388,3.10967 -2.79491,4.72763"
           id="path64"
           sodipodi:nodetypes="ccc" /><path
           style="opacity:1;fill:none;stroke:url(#swatch6);stroke-width:2.5;stroke-linecap:round;stroke-linejoin:round;stroke-dasharray:none"
           d="m 232.28458,399.51533 c 5.87859,2.19657 12.98512,-0.0405 18.208,4.06586"
           id="path65" /></g><g
         id="g90"
         inkscape:label="shading"
         style="display:inline"><path
           style="opacity:1;fill:none;stroke:url(#swatch6);stroke-width:2.5;stroke-linecap:round;stroke-linejoin:round;stroke-dasharray:none"
           d="m 191.09561,450.07346 c 2.65165,0.35356 13.25825,1.76782 15.9099,2.12138"
           id="path66" /><path
           style="opacity:1;fill:none;stroke:url(#swatch6);stroke-width:2.5;stroke-linecap:round;stroke-linejoin:round;stroke-dasharray:none"
           d="m 209.12683,432.92613 c 2.65165,-1.76777 13.25825,-8.83884 15.9099,-10.60661"
           id="path67" /><path
           style="opacity:1;fill:none;stroke:url(#swatch6);stroke-width:2.5;stroke-linecap:round;stroke-linejoin:round;stroke-dasharray:none"
           d="m 230.34003,417.54655 5.12653,-4.59619"
           id="path68" /><path
           style="opacity:1;fill:none;stroke:url(#swatch6);stroke-width:2.5;stroke-linecap:round;stroke-linejoin:round;stroke-dasharray:none"
           d="m 216.72823,381.66088 c -0.69335,1.14199 -2.69683,4.44183 -3.00521,4.94975"
           id="path69" /><path
           style="opacity:1;fill:none;stroke:url(#swatch6);stroke-width:2.5;stroke-linecap:round;stroke-linejoin:round;stroke-dasharray:none"
           d="m 212.13203,392.97459 -0.1768,1.94455"
           id="path70" /><path
           style="opacity:1;fill:none;stroke:url(#swatch6);stroke-width:2.5;stroke-linecap:round;stroke-linejoin:round;stroke-dasharray:none"
           d="m 209.12683,404.46508 c -0.43702,1.2625 -1.49768,4.32662 -1.59099,4.59619"
           id="path71" /><path
           style="opacity:1;fill:none;stroke:url(#swatch6);stroke-width:2.5;stroke-linecap:round;stroke-linejoin:round;stroke-dasharray:none"
           d="m 185.79231,402.87409 c 0,0.0589 0,0.0589 0,0 z"
           id="path72" /><path
           style="opacity:1;fill:none;stroke:url(#swatch6);stroke-width:2.5;stroke-linecap:round;stroke-linejoin:round;stroke-dasharray:none"
           d="m 182.7871,406.23284 c 0.0514,0.0386 0.0514,0.0386 0,0 z"
           id="path73" /><path
           style="opacity:1;fill:none;stroke:url(#swatch6);stroke-width:2.5;stroke-linecap:round;stroke-linejoin:round;stroke-dasharray:none"
           d="m 185.43875,412.59681 c 0.0908,-0.12259 0.0908,-0.12259 0,0 z"
           id="path74" /><path
           style="opacity:1;fill:none;stroke:url(#swatch6);stroke-width:2.5;stroke-linecap:round;stroke-linejoin:round;stroke-dasharray:none"
           d="m 191.97949,413.48069 c 0.0514,0.0386 0.0514,0.0386 0,0 z"
           id="path75" /><path
           style="opacity:1;fill:none;stroke:url(#swatch6);stroke-width:2.5;stroke-linecap:round;stroke-linejoin:round;stroke-dasharray:none"
           d="m 196.75246,418.96077 -0.70711,0.17677"
           id="path76" /><path
           style="opacity:1;fill:none;stroke:url(#swatch6);stroke-width:2.5;stroke-linecap:round;stroke-linejoin:round;stroke-dasharray:none"
           d="m 188.44396,420.90531 c 0.1079,-0.18006 0.1079,-0.18006 0,0 z"
           id="path77" /><path
           style="opacity:1;fill:none;stroke:url(#swatch6);stroke-width:2.5;stroke-linecap:round;stroke-linejoin:round;stroke-dasharray:none"
           d="m 189.50462,428.15315 c 0.0514,0.0386 0.0514,0.0386 0,0 z"
           id="path78" /><path
           style="opacity:1;fill:none;stroke:url(#swatch6);stroke-width:2.5;stroke-linecap:round;stroke-linejoin:round;stroke-dasharray:none"
           d="m 169.35207,436.28488 c 0.0514,0.0386 0.0514,0.0386 0,0 z"
           id="path79" /><path
           style="opacity:1;fill:none;stroke:url(#swatch6);stroke-width:2.5;stroke-linecap:round;stroke-linejoin:round;stroke-dasharray:none"
           d="m 177.66058,443.17917 1.23744,1.23744"
           id="path80" /><path
           style="opacity:1;fill:none;stroke:url(#swatch6);stroke-width:2.5;stroke-linecap:round;stroke-linejoin:round;stroke-dasharray:none"
           d="m 180.84256,447.24504 2.65165,1.59099"
           id="path81" /></g><g
         id="g89"
         inkscape:label="rays"><path
           style="opacity:1;fill:none;stroke:url(#swatch6);stroke-width:2.5;stroke-linecap:round;stroke-linejoin:round;stroke-dasharray:none"
           d="m 132.40574,437.6991 c 2.65166,0.29457 13.25826,1.47308 15.90991,1.76776"
           id="path82" /><path
           style="opacity:1;fill:none;stroke:url(#swatch6);stroke-width:2.5;stroke-linecap:round;stroke-linejoin:round;stroke-dasharray:none"
           d="m 145.31044,385.72675 11.13693,4.41942"
           id="path83" /><path
           style="opacity:1;fill:none;stroke:url(#swatch6);stroke-width:2.5;stroke-linecap:round;stroke-linejoin:round;stroke-dasharray:none"
           d="m 176.06959,352.49273 3.71231,8.3085"
           id="path84" /><path
           style="opacity:1;fill:none;stroke:url(#swatch6);stroke-width:2.5;stroke-linecap:round;stroke-linejoin:round;stroke-dasharray:none"
           d="m 211.42493,337.64349 c 0,4.71404 0,9.42809 0,14.14213"
           id="path85" /><path
           style="opacity:1;fill:none;stroke:url(#swatch6);stroke-width:2.5;stroke-linecap:round;stroke-linejoin:round;stroke-dasharray:none"
           d="m 251.37646,344.00745 c -1.17851,2.18025 -5.89256,10.90123 -7.07107,13.08147"
           id="path86" /><path
           style="opacity:1;fill:none;stroke:url(#swatch6);stroke-width:2.5;stroke-linecap:round;stroke-linejoin:round;stroke-dasharray:none"
           d="m 263.04372,390.32294 c 3.53553,-1.29636 7.07107,-2.59273 10.6066,-3.88909"
           id="path87" /><path
           style="opacity:1;fill:none;stroke:url(#swatch6);stroke-width:2.5;stroke-linecap:round;stroke-linejoin:round;stroke-dasharray:none"
           d="m 256.67976,432.3958 c 4.00694,0.2357 8.01388,0.4714 12.02082,0.7071"
           id="path88" /><path
           style="opacity:1;fill:none;stroke:url(#swatch6);stroke-width:2.5;stroke-linecap:round;stroke-linejoin:round;stroke-dasharray:none"
           d="m 232.63813,460.68007 c 4.23997,2.80391 6.82168,8.68454 12.37437,9.54594"
           id="path89" /></g></g></g></svg>
