<?xml version="1.0" encoding="UTF-8" standalone="no"?>
<!-- Created with Inkscape (http://www.inkscape.org/) -->

<svg
   width="450.68921"
   height="292.79691"
   viewBox="0 0 450.68933 292.79696"
   version="1.1"
   id="svg1"
   xml:space="preserve"
   inkscape:version="1.3.2 (091e20e, 2023-11-25)"
   sodipodi:docname="slime-with-lightsaber.svg"
   xmlns:inkscape="http://www.inkscape.org/namespaces/inkscape"
   xmlns:sodipodi="http://sodipodi.sourceforge.net/DTD/sodipodi-0.dtd"
   xmlns="http://www.w3.org/2000/svg"
   xmlns:svg="http://www.w3.org/2000/svg"><sodipodi:namedview
     id="namedview1"
     pagecolor="#ffffff"
     bordercolor="#999999"
     borderopacity="1"
     inkscape:showpageshadow="2"
     inkscape:pageopacity="0"
     inkscape:pagecheckerboard="0"
     inkscape:deskcolor="#d1d1d1"
     inkscape:document-units="px"
     inkscape:zoom="0.70710679"
     inkscape:cx="295.57063"
     inkscape:cy="147.78532"
     inkscape:window-width="1808"
     inkscape:window-height="868"
     inkscape:window-x="0"
     inkscape:window-y="25"
     inkscape:window-maximized="0"
     inkscape:current-layer="layer4"
     showgrid="false"><inkscape:page
       x="0"
       y="0"
       width="450.68933"
       height="292.79697"
       id="page38"
       margin="0"
       bleed="0" /></sodipodi:namedview><defs
     id="defs1"><linearGradient
       id="swatch119"><stop
         style="stop-color:#000000;stop-opacity:1;"
         offset="0"
         id="stop119" /></linearGradient><inkscape:path-effect
       effect="spiro"
       id="path-effect51"
       is_visible="true"
       lpeversion="1" /><inkscape:path-effect
       effect="bspline"
       id="path-effect50"
       is_visible="true"
       lpeversion="1.3"
       weight="33.333333"
       steps="2"
       helper_size="0"
       apply_no_weight="true"
       apply_with_weight="true"
       only_selected="false"
       uniform="false" /><inkscape:path-effect
       effect="bspline"
       id="path-effect49"
       is_visible="true"
       lpeversion="1.3"
       weight="33.333333"
       steps="2"
       helper_size="0"
       apply_no_weight="true"
       apply_with_weight="true"
       only_selected="false"
       uniform="false" /><inkscape:path-effect
       effect="bspline"
       id="path-effect48"
       is_visible="true"
       lpeversion="1.3"
       weight="33.333333"
       steps="2"
       helper_size="0"
       apply_no_weight="true"
       apply_with_weight="true"
       only_selected="false"
       uniform="false" /><inkscape:path-effect
       effect="bspline"
       id="path-effect47"
       is_visible="true"
       lpeversion="1.3"
       weight="33.333333"
       steps="2"
       helper_size="0"
       apply_no_weight="true"
       apply_with_weight="true"
       only_selected="false"
       uniform="false" /><inkscape:path-effect
       effect="bspline"
       id="path-effect46"
       is_visible="true"
       lpeversion="1.3"
       weight="33.333333"
       steps="2"
       helper_size="0"
       apply_no_weight="true"
       apply_with_weight="true"
       only_selected="false"
       uniform="false" /><linearGradient
       id="swatch22"><stop
         style="stop-color:#fbb343;stop-opacity:1;"
         offset="0"
         id="stop22" /></linearGradient><linearGradient
       id="swatch32"><stop
         style="stop-color:#fbb343;stop-opacity:1;"
         offset="0"
         id="stop32" /></linearGradient><linearGradient
       id="swatch31"><stop
         style="stop-color:#fbb343;stop-opacity:1;"
         offset="0"
         id="stop31" /></linearGradient><linearGradient
       id="swatch11"><stop
         style="stop-color:#000000;stop-opacity:1;"
         offset="0"
         id="stop11" /></linearGradient><linearGradient
       id="swatch10"
       inkscape:swatch="solid"
       inkscape:label="jamboard-yellow"
       inkscape:pinned="true"
       gradientTransform="translate(23.32429,-6.54244)"><stop
         style="stop-color:#fbb343;stop-opacity:1;"
         offset="0"
         id="stop10" /></linearGradient><linearGradient
       id="swatch9"><stop
         style="stop-color:#ffffff;stop-opacity:1;"
         offset="0"
         id="stop9" /></linearGradient><linearGradient
       id="swatch8"><stop
         style="stop-color:#ffffff;stop-opacity:1;"
         offset="0"
         id="stop8" /></linearGradient><linearGradient
       id="swatch7"><stop
         style="stop-color:#ffffff;stop-opacity:1;"
         offset="0"
         id="stop7" /></linearGradient><linearGradient
       id="swatch6"
       inkscape:swatch="solid"
       inkscape:label="jamboard-red"
       inkscape:pinned="true"
       gradientTransform="matrix(0.74273902,0,0,0.38296691,192.28446,75.907002)"><stop
         style="stop-color:#e4483f;stop-opacity:1;"
         offset="0"
         id="stop6" /></linearGradient><linearGradient
       id="swatch5"><stop
         style="stop-color:#609d4a;stop-opacity:1;"
         offset="0"
         id="stop5" /></linearGradient><linearGradient
       id="swatch4"
       inkscape:swatch="solid"
       inkscape:label="jamboard-white"
       inkscape:pinned="true"
       gradientTransform="translate(-0.87499999,1.1017135)"><stop
         style="stop-color:#ffffff;stop-opacity:1;"
         offset="0"
         id="stop4" /></linearGradient><linearGradient
       id="swatch3"
       inkscape:swatch="solid"
       inkscape:label="jamboard-charcoal"
       gradientTransform="matrix(0.19753784,0.00452506,-0.00452506,0.19753784,-548.48168,-47.439586)"
       inkscape:pinned="true"><stop
         style="stop-color:#262626;stop-opacity:1;"
         offset="0"
         id="stop3" /></linearGradient><linearGradient
       id="swatch2"
       inkscape:swatch="solid"
       inkscape:label="jamboard-green"
       inkscape:pinned="true"><stop
         style="stop-color:#609d4a;stop-opacity:1;"
         offset="0"
         id="stop2" /></linearGradient><linearGradient
       id="swatch1"
       inkscape:swatch="solid"
       inkscape:label="jamboard-azure"
       inkscape:pinned="true"
       gradientTransform="translate(-1.999944,-1.0625)"><stop
         style="stop-color:#00abbf;stop-opacity:1;"
         offset="0"
         id="stop1" /></linearGradient><inkscape:path-effect
       effect="bspline"
       id="path-effect50-6"
       is_visible="true"
       lpeversion="1.3"
       weight="33.333333"
       steps="2"
       helper_size="0"
       apply_no_weight="true"
       apply_with_weight="true"
       only_selected="false"
       uniform="false" /></defs><g
     inkscape:groupmode="layer"
     id="layer4"
     inkscape:label="Objects Slide 5"
     style="display:inline"><path
       style="display:inline;opacity:1;fill:none;stroke:url(#swatch3);stroke-width:2.5;stroke-linecap:round;stroke-linejoin:round;stroke-dasharray:none"
       d="m 76.236345,263.99011 c 103.241125,-0.23075 177.984645,-1.08846 280.114255,0.17038 87.88106,1.08322 81.07682,-104.77916 55.45528,-140.81555 C 310.20513,-19.555334 125.68359,-2.780952 43.381462,113.46342 18.385118,148.76851 -1.143469,264.16305 76.236345,263.99011 Z"
       id="path59"
       sodipodi:nodetypes="sssss"
       inkscape:label="slime outline"
       sodipodi:insensitive="true" /><g
       id="g107"
       inkscape:label="lightsaber"
       transform="translate(-243.53303,-215.71229)"><g
         id="g106"
         inkscape:label="blade"><path
           style="opacity:1;fill:none;stroke:url(#swatch6);stroke-width:2.5;stroke-linecap:round;stroke-linejoin:round;stroke-dasharray:none"
           d="m 430.19199,402.36289 c 0,0 10.64688,-12.86289 14.35244,-20.86289 C 448.25,373.5 468.25,335.75 471,330.75 c 2.75,-5 18,-28 20.75,-35.5 2.75,-7.5 16,-14.75 6.75,7.75 -9.25,22.5 -15.75,26.5 -21.5,40 -5.75,13.5 -14.5,22.5 -16.75,25 -2.25,2.5 -7.26503,18.34619 -12.25,25.75 -4.98497,7.40381 -8.87098,12.79798 -8.87098,12.79798 z"
           id="path106"
           inkscape:label="laserblade outline" /><path
           style="opacity:1;fill:none;stroke:url(#swatch6);stroke-width:2.5;stroke-linecap:round;stroke-linejoin:round;stroke-dasharray:none"
           d="m 499.58075,287.87429 c 0.37344,2.46453 -7.75084,5.55286 -4.11042,5.83226 1.63835,-0.8897 7.78902,-2.13342 3.35622,0.53248 -1.80886,1.21988 -7.71006,6.19335 -2.56527,2.95102 4.48423,1.19729 -6.12758,3.35739 -5.8386,6.59513 1.44072,-0.32796 7.9497,-1.22732 4.03214,1.05522 -2.94559,-0.11441 -10.26009,5.43518 -3.38942,4.32405 4.0677,3.56824 -5.06461,4.78283 -7.60949,5.59021 2.55167,-1.79874 8.95786,0.27722 3.3311,1.77148 -2.19652,0.24992 -7.28509,0.92097 -7.16812,2.37763 2.01852,-0.79298 9.53335,0.92614 4.12768,2.437 -1.8416,0.12556 -8.37635,3.41647 -2.99985,2.8087 4.23568,-1.58577 3.88421,0.95397 0.29402,1.82201 -2.54915,0.51677 -10.13671,5.65029 -3.83003,4.33387 2.55127,-1.02023 5.78323,0.43364 1.88291,2.25849 -3.19659,2.51887 -10.13714,6.02232 -11.14159,8.03474 3.26718,-0.72677 6.2422,-5.31817 9.58512,-3.6996 -2.54424,3.99646 -11.07536,8.62513 -11.52441,10.28131 1.83768,-0.57455 9.61962,-5.34786 5.14276,-0.98011 -2.31384,2.11558 -8.51698,3.36143 -8.6977,5.67279 1.98654,-0.45207 8.42436,-1.87811 3.92443,1.35908 -1.80055,0.90938 -8.16618,5.58704 -2.44635,4.54234 2.5063,1.47651 -9.65974,0.10565 -4.16604,3.18902 4.07577,2.66579 -2.80093,1.0186 -3.59019,1.83455 0.26204,1.52177 2.53193,4.7538 0.0365,1.87878 -3.70396,0.44499 1.03507,9.93993 -1.99619,4.95831 -1.63259,1.22417 -0.76607,9.8463 -1.37916,4.61125 -2.9619,-1.5738 -0.84251,5.73107 -1.37447,7.68534 -0.47934,4.048 -2.9173,-7.20958 -3.76397,-1.50413 -0.30556,3.5866 -1.38351,7.5608 -1.96225,10.76388 -0.35743,-3.39845 -4.30894,-5.09521 -3.37187,-0.39641 -0.0159,1.29831 0.32684,8.69826 -0.81657,6.63154 -0.17132,-1.86447 -1.66366,-5.1946 -1.64071,-1.35508 0.18906,1.97364 -0.67266,6.83533 -1.56107,2.23914 -4.32987,-4.60687 1.20762,6.05866 -2.45286,2.14041 -6.95955,-0.43542 6.29008,3.01687 3.23197,6.09698"
           id="path107"
           inkscape:label="laserblade crosshatch" /></g><path
         style="opacity:1;fill:none;stroke:url(#swatch3);stroke-width:2.5;stroke-linecap:round;stroke-linejoin:round;stroke-dasharray:none"
         d="m 428.86026,404.81863 c -3.24535,2.7735 -5.00425,5.17838 -7.86656,8.30851 -2.69006,2.94177 -4.00963,8.24926 -6.23029,11.59046 -2.20279,3.31431 -4.16578,7.15982 -6.29469,10.53554 -1.51088,2.39574 -2.37025,4.4855 -2.97723,7.32807 -0.58071,2.71953 -1.59493,6.50264 0.91813,8.02259 3.07572,1.86026 5.02434,-1.55419 7.23748,-3.52254 2.74433,-2.44079 5.25816,-6.24864 6.0596,-9.87583 0.90164,-4.0807 3.51022,-7.85578 5.98503,-11.21948 2.5543,-3.47175 3.97883,-6.45168 6.94337,-9.59109 1.86699,-1.97712 2.91158,-4.8306 4.62206,-6.89161"
         id="path98"
         sodipodi:nodetypes="csssssssssc"
         inkscape:label="hilt outline" /><g
         id="g103"
         inkscape:label="hilt crosshatch"><path
           style="opacity:1;fill:none;stroke:url(#swatch3);stroke-width:2.5;stroke-linecap:round;stroke-linejoin:round;stroke-dasharray:none"
           d="m 430,407.75 c 1.09814,2.8192 -0.83983,6.95383 2.6351,8.64487"
           id="path99" /><path
           style="opacity:1;fill:none;stroke:url(#swatch3);stroke-width:2.5;stroke-linecap:round;stroke-linejoin:round;stroke-dasharray:none"
           d="m 425.41395,408.14721 c 3.56793,4.07257 -0.9012,10.23171 2.6992,14.28472"
           id="path100" /><path
           style="opacity:1;fill:none;stroke:url(#swatch3);stroke-width:2.5;stroke-linecap:round;stroke-linejoin:round;stroke-dasharray:none"
           d="m 420.9937,413.12714 c -0.51091,5.78947 0.74685,11.59116 0.03,17.37322"
           id="path101" /><path
           style="opacity:1;fill:none;stroke:url(#swatch3);stroke-width:2.5;stroke-linecap:round;stroke-linejoin:round;stroke-dasharray:none"
           d="m 414.76341,424.7176 c 4.37106,5.69733 -0.74549,12.94617 1.82002,19.08914"
           id="path102" /><path
           style="opacity:1;fill:none;stroke:url(#swatch3);stroke-width:2.5;stroke-linecap:round;stroke-linejoin:round;stroke-dasharray:none"
           d="m 410.875,434.26217 c 0.48875,4.41484 -0.2988,8.84547 -1.375,13.11283"
           id="path103" /></g><g
         id="g105"
         inkscape:label="guard"><path
           style="opacity:1;fill:none;stroke:url(#swatch3);stroke-width:2.5;stroke-linecap:round;stroke-linejoin:round;stroke-dasharray:none"
           d="m 424.52923,403.93475 c -1.27405,-0.68803 -3.56955,-1.57344 -3.10828,-3.35074 1.89921,-1.01796 4.16896,0.51754 6.10979,0.91721 3.15986,1.03381 6.37011,1.96264 9.2995,3.56893 2.65859,1.36332 4.92972,3.6266 6.23646,6.31748 1.29697,2.9106 -3.01741,2.54185 -4.27758,1.0856 -3.35891,-1.9594 -6.60675,-4.09043 -9.74476,-6.38628 -1.39309,-0.90032 -2.82418,-1.95119 -4.51513,-2.1522 z"
           id="path104"
           inkscape:label="guard outline" /><path
           style="opacity:1;fill:none;stroke:url(#swatch3);stroke-width:2.5;stroke-linecap:round;stroke-linejoin:round;stroke-dasharray:none"
           d="m 423.14086,403.205 c 4.63638,-3.22322 7.78079,4.25828 12.57393,3.21657 0.4651,1.29221 -0.87804,2.29372 1.76722,2.3484 2.74122,-0.35753 3.3995,1.96724 2.7265,3.53207 0.51522,0.13771 1.09669,-0.0569 1.55652,0.2948"
           id="path105"
           inkscape:label="guard fill" /></g></g></g></svg>
