<?xml version="1.0" encoding="UTF-8" standalone="no"?>
<!-- Created with Inkscape (http://www.inkscape.org/) -->

<svg
   width="800"
   height="512"
   viewBox="0 0 800.00021 512.0001"
   version="1.1"
   id="svg1"
   xml:space="preserve"
   inkscape:version="1.3.2 (091e20e, 2023-11-25)"
   sodipodi:docname="monads.svg"
   xmlns:inkscape="http://www.inkscape.org/namespaces/inkscape"
   xmlns:sodipodi="http://sodipodi.sourceforge.net/DTD/sodipodi-0.dtd"
   xmlns="http://www.w3.org/2000/svg"
   xmlns:svg="http://www.w3.org/2000/svg"><sodipodi:namedview
     id="namedview1"
     pagecolor="#ffffff"
     bordercolor="#999999"
     borderopacity="1"
     inkscape:showpageshadow="2"
     inkscape:pageopacity="0"
     inkscape:pagecheckerboard="0"
     inkscape:deskcolor="#d1d1d1"
     inkscape:document-units="px"
     inkscape:zoom="0.70710679"
     inkscape:cx="173.94827"
     inkscape:cy="229.10259"
     inkscape:window-width="1424"
     inkscape:window-height="449"
     inkscape:window-x="0"
     inkscape:window-y="25"
     inkscape:window-maximized="0"
     inkscape:current-layer="layer6"
     showgrid="false"><inkscape:page
       x="0"
       y="0"
       width="800.00018"
       height="512.00012"
       id="page38"
       margin="0"
       bleed="0" /></sodipodi:namedview><defs
     id="defs1"><linearGradient
       id="swatch119"><stop
         style="stop-color:#000000;stop-opacity:1;"
         offset="0"
         id="stop119" /></linearGradient><inkscape:path-effect
       effect="spiro"
       id="path-effect51"
       is_visible="true"
       lpeversion="1" /><inkscape:path-effect
       effect="bspline"
       id="path-effect50"
       is_visible="true"
       lpeversion="1.3"
       weight="33.333333"
       steps="2"
       helper_size="0"
       apply_no_weight="true"
       apply_with_weight="true"
       only_selected="false"
       uniform="false" /><inkscape:path-effect
       effect="bspline"
       id="path-effect49"
       is_visible="true"
       lpeversion="1.3"
       weight="33.333333"
       steps="2"
       helper_size="0"
       apply_no_weight="true"
       apply_with_weight="true"
       only_selected="false"
       uniform="false" /><inkscape:path-effect
       effect="bspline"
       id="path-effect48"
       is_visible="true"
       lpeversion="1.3"
       weight="33.333333"
       steps="2"
       helper_size="0"
       apply_no_weight="true"
       apply_with_weight="true"
       only_selected="false"
       uniform="false" /><inkscape:path-effect
       effect="bspline"
       id="path-effect47"
       is_visible="true"
       lpeversion="1.3"
       weight="33.333333"
       steps="2"
       helper_size="0"
       apply_no_weight="true"
       apply_with_weight="true"
       only_selected="false"
       uniform="false" /><inkscape:path-effect
       effect="bspline"
       id="path-effect46"
       is_visible="true"
       lpeversion="1.3"
       weight="33.333333"
       steps="2"
       helper_size="0"
       apply_no_weight="true"
       apply_with_weight="true"
       only_selected="false"
       uniform="false" /><linearGradient
       id="swatch22"><stop
         style="stop-color:#fbb343;stop-opacity:1;"
         offset="0"
         id="stop22" /></linearGradient><linearGradient
       id="swatch32"><stop
         style="stop-color:#fbb343;stop-opacity:1;"
         offset="0"
         id="stop32" /></linearGradient><linearGradient
       id="swatch31"><stop
         style="stop-color:#fbb343;stop-opacity:1;"
         offset="0"
         id="stop31" /></linearGradient><linearGradient
       id="swatch11"><stop
         style="stop-color:#000000;stop-opacity:1;"
         offset="0"
         id="stop11" /></linearGradient><linearGradient
       id="swatch10"
       inkscape:swatch="solid"
       inkscape:label="jamboard-yellow"
       inkscape:pinned="true"
       gradientTransform="translate(23.32429,-6.54244)"><stop
         style="stop-color:#fbb343;stop-opacity:1;"
         offset="0"
         id="stop10" /></linearGradient><linearGradient
       id="swatch9"><stop
         style="stop-color:#ffffff;stop-opacity:1;"
         offset="0"
         id="stop9" /></linearGradient><linearGradient
       id="swatch8"><stop
         style="stop-color:#ffffff;stop-opacity:1;"
         offset="0"
         id="stop8" /></linearGradient><linearGradient
       id="swatch7"><stop
         style="stop-color:#ffffff;stop-opacity:1;"
         offset="0"
         id="stop7" /></linearGradient><linearGradient
       id="swatch6"
       inkscape:swatch="solid"
       inkscape:label="jamboard-red"
       inkscape:pinned="true"
       gradientTransform="matrix(0.74273902,0,0,0.38296691,192.28446,75.907002)"><stop
         style="stop-color:#e4483f;stop-opacity:1;"
         offset="0"
         id="stop6" /></linearGradient><linearGradient
       id="swatch5"><stop
         style="stop-color:#609d4a;stop-opacity:1;"
         offset="0"
         id="stop5" /></linearGradient><linearGradient
       id="swatch4"
       inkscape:swatch="solid"
       inkscape:label="jamboard-white"
       inkscape:pinned="true"
       gradientTransform="translate(-0.87499999,1.1017135)"><stop
         style="stop-color:#ffffff;stop-opacity:1;"
         offset="0"
         id="stop4" /></linearGradient><linearGradient
       id="swatch3"
       inkscape:swatch="solid"
       inkscape:label="jamboard-charcoal"
       gradientTransform="matrix(0.19753784,0.00452506,-0.00452506,0.19753784,-1351.4193,-47.439586)"
       inkscape:pinned="true"><stop
         style="stop-color:#262626;stop-opacity:1;"
         offset="0"
         id="stop3" /></linearGradient><linearGradient
       id="swatch2"
       inkscape:swatch="solid"
       inkscape:label="jamboard-green"
       inkscape:pinned="true"><stop
         style="stop-color:#609d4a;stop-opacity:1;"
         offset="0"
         id="stop2" /></linearGradient><linearGradient
       id="swatch1"
       inkscape:swatch="solid"
       inkscape:label="jamboard-azure"
       inkscape:pinned="true"
       gradientTransform="translate(-1.999944,-1.0625)"><stop
         style="stop-color:#00abbf;stop-opacity:1;"
         offset="0"
         id="stop1" /></linearGradient><inkscape:path-effect
       effect="bspline"
       id="path-effect50-6"
       is_visible="true"
       lpeversion="1.3"
       weight="33.333333"
       steps="2"
       helper_size="0"
       apply_no_weight="true"
       apply_with_weight="true"
       only_selected="false"
       uniform="false" /></defs><g
     inkscape:groupmode="layer"
     id="layer6"
     inkscape:label="Objects Slide 7"><g
       id="g39"
       inkscape:label="slime inside slime - flattening"
       transform="translate(-753.99999,4)"
       style="display:inline"><g
         id="g66"
         inkscape:label="dirt right of spiky slime"
         transform="translate(753.99999,-4)"><path
           style="fill:none;stroke:url(#swatch3);stroke-width:1.5;stroke-linecap:round;stroke-linejoin:round;stroke-dasharray:none"
           d="m 799.16031,474.64542 c -0.33059,-0.0996 -0.659,-0.23635 -1.01646,-0.17677 -0.23077,0.0385 -0.4489,0.17004 -0.66292,0.26516 -0.18821,0.0836 -0.38518,0.0695 -0.57452,0.13258 -0.3131,0.10437 -0.61013,0.26271 -0.92808,0.35356 -0.43043,0.12298 0.0373,-0.005 -0.30936,0.0442 -0.12026,0.0172 -0.23329,0.0712 -0.35355,0.0884 -0.13637,0.0195 -0.30828,0.0108 -0.44194,0.0442 -0.0202,0.005 -0.0244,0.0376 -0.0442,0.0442 -0.0713,0.0238 -0.14688,0.0318 -0.22098,0.0442 -0.20768,0.0346 -0.41316,0.037 -0.61871,0.0884 -0.24621,0.0615 -0.60256,-0.005 -0.83969,-0.0442 -0.0919,-0.0153 -0.17294,-0.0752 -0.26517,-0.0884 -0.0583,-0.008 -0.1183,0.007 -0.17677,0 -0.37423,-0.0468 -0.73483,-0.21231 -1.10486,-0.26517 -0.16843,-0.0241 -0.35907,0 -0.53033,0"
           id="path59" /><path
           style="fill:none;stroke:url(#swatch3);stroke-width:1.5;stroke-linecap:round;stroke-linejoin:round;stroke-dasharray:none"
           d="m 788.24999,474.87499 c -0.52652,-0.25304 -2.47467,-1.01266 -3,-0.75 -0.10541,0.0527 -0.14459,0.1973 -0.25,0.25 -0.137,0.0685 -0.46658,0.2104 -0.625,0.25 -0.30123,0.0753 -0.84389,-0.14055 -1.125,0 -0.31219,0.1561 -0.61483,0.125 -1,0.125"
           id="path60" /><path
           style="fill:none;stroke:url(#swatch3);stroke-width:1.5;stroke-linecap:round;stroke-linejoin:round;stroke-dasharray:none"
           d="m 776.62499,475.74999 c -0.625,0 -1.25,0 -1.875,0 -0.76829,0 -1.52692,-0.0558 -2.25,0.125 -0.46304,0.11577 -1.03587,-0.008 -1.5,0.125 -0.875,0.25 -0.1875,0.1875 -0.75,0.375 -0.69709,0.23237 -1.41098,0.34133 -2.125,0.5 -0.66767,0.14838 -1.07053,0.35149 -1.75,0.125 -0.8969,-0.29896 -0.77813,-0.62084 -1.25,-1.25 -0.32343,-0.43123 -1.26199,-0.92979 -1.75,-1.125 -0.97812,-0.39124 -1.53068,-0.30613 -2.5,-0.5 -0.46552,-0.0931 -0.90498,-0.30785 -1.375,-0.375 -0.57089,-0.0816 -1.17699,-0.18633 -1.75,-0.25 -0.20706,-0.023 -0.42003,0.0373 -0.625,0 -0.25927,-0.0471 -0.49159,-0.19831 -0.75,-0.25 -0.16343,-0.0327 -0.33435,0.0184 -0.5,0 -0.68151,-0.0757 -1.31039,-0.125 -2,-0.125"
           id="path61" /><path
           style="fill:none;stroke:url(#swatch3);stroke-width:1.5;stroke-linecap:round;stroke-linejoin:round;stroke-dasharray:none"
           d="m 749.87499,472.49999 c -0.46668,0.29961 -1.37921,-0.24789 -1.875,0 -0.78095,0.39048 -2.00503,0.76626 -2.875,0.875 -3.4095,0.42619 0.3095,-0.04 -2,0.125 -0.33333,0.0417 -0.66666,0.0833 -1,0.125 -0.125,0.0417 -0.24456,0.10637 -0.375,0.125 -0.16499,0.0236 -0.33831,-0.0404 -0.5,0 -0.2647,0.0662 -0.48529,0.30883 -0.75,0.375 -1.1357,0.28393 -2.19026,0.59513 -3.25,1.125 -0.23247,0.11624 -1.29032,0.61022 -1.5,0.75 -0.58608,0.39072 -1.11457,1.02199 -1.75,1.375 -0.5215,0.28973 -1.07666,0.515 -1.625,0.75 -0.80005,0.34288 -1.06089,0.26523 -2,0.5 -1.25029,0.31258 -0.25075,0.20204 -1.375,0.375 -1.49064,0.22933 -3.02141,0.32929 -4.5,0.625 -0.50538,0.10108 -0.99092,0.29462 -1.5,0.375 -0.43757,0.0691 -1.41727,-0.0276 -1.875,0.125 -0.0395,0.0132 0.0373,0.10637 0,0.125 -0.16582,0.0829 -1.74047,0.0122 -1.875,0 -0.21158,-0.0192 -0.41327,-0.10735 -0.625,-0.125 -0.45675,-0.0381 -0.92127,0.0648 -1.375,0 -0.13043,-0.0186 -0.24425,-0.10865 -0.375,-0.125 -0.20672,-0.0258 -0.4195,0.0342 -0.625,0 -0.25546,-0.0426 -0.69828,-0.59852 -0.875,-0.75 -0.76543,-0.65608 -0.25755,-0.12971 -1.25,-0.75 -0.52224,-0.3264 -1.01398,-0.79632 -1.625,-1 -0.48894,-0.16298 -0.9906,-0.29663 -1.5,-0.375 -0.24709,-0.038 -0.50153,0.0276 -0.75,0 -1.29418,-0.14379 -2.58095,-0.35621 -3.875,-0.5 -0.41412,-0.046 -0.83504,0.0377 -1.25,0 -0.58683,-0.0533 -1.16666,-0.16666 -1.75,-0.25 -0.23828,-0.034 -3.38944,-0.71796 -3.625,-0.875 -0.0981,-0.0654 -0.15194,-0.18462 -0.25,-0.25 -0.10963,-0.0731 -0.25715,-0.0661 -0.375,-0.125 -0.88962,-0.44481 -1.8093,-0.81143 -2.75,-1.125"
           id="path62" /><path
           style="fill:none;stroke:url(#swatch3);stroke-width:1.5;stroke-linecap:round;stroke-linejoin:round;stroke-dasharray:none"
           d="m 692.49999,473.74999 c -0.77849,-0.54498 -1.46226,-0.5 -2.375,-0.5"
           id="path63" /><path
           style="fill:none;stroke:url(#swatch3);stroke-width:1.5;stroke-linecap:round;stroke-linejoin:round;stroke-dasharray:none"
           d="m 686.62499,473.74999 c -0.67855,0.039 -1.30756,0.1346 -2,0.25 -0.2466,0.0411 -0.50485,-0.049 -0.75,0 -0.0914,0.0183 -0.1581,0.10969 -0.25,0.125 -0.2466,0.0411 -0.50746,-0.0606 -0.75,0 -0.0904,0.0226 -0.1581,0.10969 -0.25,0.125 -0.1644,0.0274 -0.33657,-0.0327 -0.5,0 -0.0578,0.0116 -0.0691,0.10637 -0.125,0.125 -0.27193,0.0906 -0.58816,0.084 -0.875,0.125 -1.73672,0.24811 0.27535,-0.006 -0.75,0.25 -0.65726,0.16432 -1.34019,0.21005 -2,0.375 -0.36172,0.0904 -2.07973,0.32973 -2.25,0.5"
           id="path64" /><path
           style="fill:none;stroke:url(#swatch3);stroke-width:1.5;stroke-linecap:round;stroke-linejoin:round;stroke-dasharray:none"
           d="m 643.06249,469.875 c 0.52426,-0.009 1.1176,-0.0212 1.5625,0.3125 0.25576,0.19181 0.47456,0.45549 0.75,0.625 0.36968,0.22749 0.82322,0.31785 1.1875,0.5 0.28151,0.14075 0.66334,0.72583 0.875,0.9375 0.30809,0.30808 0.74344,0.44597 1,0.8125 0.23381,0.334 0.27946,0.80534 0.375,1.1875 0.10571,0.4228 0.13342,0.34706 0.3125,0.75 0.0195,0.0439 0.0738,0.26134 0.125,0.3125 0.21587,0.21586 0.91527,0.30335 1.1875,0.375 0.27404,0.0721 0.53847,0.17788 0.8125,0.25 0.22526,0.0593 0.46153,0.0685 0.6875,0.125 0.33356,0.0834 0.67488,0.20412 1,0.3125 0.1589,0.053 0.23974,0.18236 0.375,0.25 0.25897,0.12948 0.55002,0.18126 0.8125,0.3125"
           id="path65" /><path
           style="fill:none;stroke:url(#swatch3);stroke-width:1.5;stroke-linecap:round;stroke-linejoin:round;stroke-dasharray:none"
           d="m 658.74999,477 c 0.47365,0.15801 0.99261,0.27346 1.5,0.3125 0.11783,0.009 0.72224,-0.0116 0.875,-0.0625 0.0713,-0.0238 0.11624,-0.10125 0.1875,-0.125 0.0593,-0.0198 0.12649,0.0136 0.1875,0 0.56397,-0.12533 0.82896,-0.23822 1.4375,-0.1875 0.96378,0.0803 1.90926,0.33584 2.875,0.4375 0.45265,0.0476 0.98288,0.0325 1.4375,0 0.59361,-0.0424 0.59555,-0.10497 1.0625,-0.3125 0.32299,-0.14355 0.60815,-0.1512 0.9375,-0.25 0.64212,-0.19264 -0.25388,-0.10906 0.6875,-0.1875 0.80503,-0.0671 1.63493,0.0892 2.4375,0 0.20827,-0.0231 0.4269,-0.18397 0.625,-0.25 0.10543,-0.0351 0.0923,0.0327 0.1875,-0.0625"
           id="path66" /></g><g
         id="g52"
         inkscape:label="dirt left of flattening slime"
         transform="translate(753.99999,-4)"><path
           style="display:inline;fill:none;stroke:url(#swatch3);stroke-width:1.5;stroke-linecap:round;stroke-linejoin:round;stroke-dasharray:none"
           d="m 2.03124,473.99999 c 0.7390247,-0.0191 1.4794077,-0.0194 2.125,0.375"
           id="path47"
           inkscape:label="path47" /><path
           style="display:inline;fill:none;stroke:url(#swatch3);stroke-width:1.5;stroke-linecap:round;stroke-linejoin:round;stroke-dasharray:none"
           d="m 8.69884,474.73381 c 3.308986,-0.11837 5.555673,-3.62313 9.19238,-2.12131"
           id="path50" /><path
           style="display:inline;fill:none;stroke:url(#swatch3);stroke-width:1.5;stroke-linecap:round;stroke-linejoin:round;stroke-dasharray:none"
           d="m 23.625,473.62499 c 3.148263,1.16842 6.751773,2.27931 10.013096,1.04772 2.149878,-2.3948 5.099803,-2.43005 8.058967,-2.57933 1.800455,-0.61226 3.461948,-1.27208 5.427936,-1.21838"
           id="path51" /><path
           style="display:inline;fill:none;stroke:url(#swatch3);stroke-width:1.5;stroke-linecap:round;stroke-linejoin:round;stroke-dasharray:none"
           d="m 55.749999,470.125 c 3.239479,-1.05388 6.468214,-0.18859 9.719797,-0.66326 0.738408,0.0341 5.01583,-2.42368 7.17479,-0.75286 2.409497,2.10362 5.679276,3.22395 8.893944,2.5715 2.977387,-0.37745 5.943164,-1.24358 8.586469,-1.78038 1.870984,0.0555 3.941319,-0.12371 5.625,0.125"
           id="path52" /></g><g
         id="g1"
         inkscape:label="outer slime face"><path
           style="font-variation-settings:normal;opacity:1;fill:url(#swatch2);fill-opacity:1;stroke:url(#swatch2);stroke-width:3;stroke-linecap:round;stroke-linejoin:round;stroke-miterlimit:4;stroke-dasharray:none;stroke-dashoffset:0;stroke-opacity:1"
           d="m 1002.4564,193.21693 c -6.43312,-2.01751 -7.33091,0.94173 -7.33091,6.85635 0,5.91463 2.02404,8.99352 7.52221,8.99352 5.4982,0 7.7861,-5.11492 7.8042,-8.3441 0.018,-3.22918 -1.5624,-5.48826 -7.9955,-7.50577 z"
           id="path160"
           sodipodi:nodetypes="zzzzz"
           inkscape:label="eye 1" /><g
           id="g13"
           inkscape:label="eye 2"><path
             style="font-variation-settings:normal;opacity:1;fill:url(#swatch2);fill-opacity:1;stroke:url(#swatch2);stroke-width:3;stroke-linecap:round;stroke-linejoin:round;stroke-miterlimit:4;stroke-dasharray:none;stroke-dashoffset:0;stroke-opacity:1"
             d="m 1039.4469,194.1892 c 0,3.27173 1.0234,5.83344 3.172,7.32428 2.1485,1.49085 6.0729,1.22023 8.8966,-0.68787 2.8236,-1.9081 4.1276,-3.57022 4.1276,-8.6698 0,-7.26509 -6.4754,-9.87473 -12.7551,-5.55003 -1.9168,1.32012 -3.4411,4.31168 -3.4411,7.58342 z"
             id="path161"
             sodipodi:nodetypes="zzzssz"
             inkscape:label="eye 2" /><circle
             style="fill:url(#swatch4);stroke:none;stroke-width:3;stroke-linecap:round;stroke-linejoin:round"
             id="path13"
             cx="1048.9385"
             cy="195.53102"
             r="0.90894473"
             inkscape:label="pupil 2" /></g><path
           style="font-variation-settings:normal;opacity:1;fill:url(#swatch2);fill-opacity:1;stroke:url(#swatch2);stroke-width:3;stroke-linecap:round;stroke-linejoin:round;stroke-miterlimit:4;stroke-dasharray:none;stroke-dashoffset:0;stroke-opacity:1"
           d="m 1042.9375,173.5 c -2.6207,4.05223 -6.0116,7.46259 -9.625,10.6875 3.5976,-2.67724 7.0991,-5.50815 9.875,-9.5 z"
           id="path162"
           sodipodi:nodetypes="cccc"
           inkscape:label="eyebrow 2" /><path
           style="font-variation-settings:normal;opacity:1;fill:url(#swatch2);fill-opacity:1;stroke:url(#swatch2);stroke-width:3;stroke-linecap:round;stroke-linejoin:round;stroke-miterlimit:4;stroke-dasharray:none;stroke-dashoffset:0;stroke-opacity:1"
           d="m 1002.3125,176.25 c 4.9421,4.7836 10.037,8.79966 14.3125,11.75 -4.323,-1.9169 -9.4479,-4.62504 -14.4375,-7.875"
           id="path163"
           sodipodi:nodetypes="ccc"
           inkscape:label="eyebrow 1" /><g
           id="g168"
           inkscape:label="mouth"><path
             style="font-variation-settings:normal;opacity:1;fill:none;fill-opacity:1;stroke:url(#swatch2);stroke-width:3;stroke-linecap:round;stroke-linejoin:round;stroke-miterlimit:4;stroke-dasharray:none;stroke-dashoffset:0;stroke-opacity:1"
             d="m 1020.2667,234.58268 c 15.6852,0.15629 23.8657,-5.92377 30.1405,-19.88738 0.1229,0.082 8.5458,20.34971 -4.8951,29.69849 -13.0949,9.10809 -24.6173,-5.2749 -25.2454,-9.81111 z"
             id="path164"
             sodipodi:nodetypes="ccsc" /><path
             style="font-variation-settings:normal;opacity:1;fill:none;fill-opacity:1;stroke:url(#swatch2);stroke-width:3;stroke-linecap:round;stroke-linejoin:round;stroke-miterlimit:4;stroke-dasharray:none;stroke-dashoffset:0;stroke-opacity:1"
             d="m 1029.8126,237.14594 3.0936,5.56846"
             id="path165" /><path
             style="font-variation-settings:normal;opacity:1;fill:none;fill-opacity:1;stroke:url(#swatch2);stroke-width:3;stroke-linecap:round;stroke-linejoin:round;stroke-miterlimit:4;stroke-dasharray:none;stroke-dashoffset:0;stroke-opacity:1"
             d="m 1036.0882,235.64594 3.6239,7.42202"
             id="path166" /><path
             style="font-variation-settings:normal;opacity:1;fill:none;fill-opacity:1;stroke:url(#swatch2);stroke-width:3;stroke-linecap:round;stroke-linejoin:round;stroke-miterlimit:4;stroke-dasharray:none;stroke-dashoffset:0;stroke-opacity:1"
             d="m 1040.1541,232.81491 4.5334,6.54204"
             id="path167" /><path
             style="font-variation-settings:normal;opacity:1;fill:none;fill-opacity:1;stroke:url(#swatch2);stroke-width:3;stroke-linecap:round;stroke-linejoin:round;stroke-miterlimit:4;stroke-dasharray:none;stroke-dashoffset:0;stroke-opacity:1"
             d="m 1043.3409,226.0363 3.6191,5.80634"
             id="path168" /></g></g><g
         id="g22"
         inkscape:label="inner slime face"><path
           style="fill:url(#swatch1);stroke:url(#swatch1);stroke-width:3;stroke-linecap:round;stroke-linejoin:round"
           d="m 1126.0783,299.97044 c -5.944,4.11261 -0.3429,16.56982 6.3944,11.00816 4.7022,-4.56226 -0.1856,-12.31568 -6.3944,-11.00816 z"
           id="path11"
           sodipodi:nodetypes="ccc"
           inkscape:label="eye 1" /><path
           style="fill:url(#swatch1);stroke:url(#swatch1);stroke-width:3;stroke-linecap:round;stroke-linejoin:round"
           d="m 1154.8125,310.1875 c -3.3964,-2.85498 -9.3019,-0.6082 -10.3399,4.43184 -0.2636,1.27998 2.6378,2.16402 4.2142,3.3403 1.5764,1.17629 2.0121,3.27005 3.3683,3.13846 5.2309,-0.50756 6.1125,-8.09032 2.7574,-10.9106 z"
           id="path12"
           sodipodi:nodetypes="sszss"
           inkscape:label="eye 2" /><path
           style="fill:none;stroke:url(#swatch1);stroke-width:3;stroke-linecap:round;stroke-linejoin:round"
           d="m 1158.3066,299.25 c 0,3.81427 3.7417,5.88871 7.4429,10.125"
           id="path14"
           sodipodi:nodetypes="cc"
           inkscape:label="eyebrow 2" /><path
           style="fill:none;stroke:url(#swatch1);stroke-width:3;stroke-linecap:round;stroke-linejoin:round"
           d="m 1123.1507,293.00737 c 1.6794,-0.88388 9.3692,-1.59099 11.6673,-1.14905"
           id="path15"
           inkscape:label="eyebrow 1" /><g
           id="g21"
           inkscape:label="mouth"><path
             style="fill:none;stroke:url(#swatch1);stroke-width:3;stroke-linecap:round;stroke-linejoin:round"
             d="m 1113.375,335.0625 c 0,0 9.0903,0.1231 13.5643,3.5 4.474,3.3769 10.4357,8.875 10.4357,8.875 0,0 11.1982,-5.21071 11.2586,-16.625 0.061,-11.4143 -10.5676,-12.60856 -20.3818,-9.58553 -9.8143,3.02303 -14.8768,13.83553 -14.8768,13.83553 z"
             id="path16"
             sodipodi:nodetypes="czccsc" /><path
             style="fill:none;stroke:url(#swatch1);stroke-width:3;stroke-linecap:round;stroke-linejoin:round"
             d="m 1127.1875,324.3125 c -2.2275,2.08671 -4.4508,3.72109 -5.625,6.125"
             id="path17"
             sodipodi:nodetypes="cc" /><path
             style="fill:none;stroke:url(#swatch1);stroke-width:3;stroke-linecap:round;stroke-linejoin:round"
             d="m 1134.875,322.8125 c -3.4319,3.79786 -7.33,7.76266 -8.3125,11.25"
             id="path18"
             sodipodi:nodetypes="cc" /><path
             style="fill:none;stroke:url(#swatch1);stroke-width:3;stroke-linecap:round;stroke-linejoin:round"
             d="m 1140.125,324.125 c -3.4843,4.32474 -7.1029,6.99993 -8.187,13.125"
             id="path19"
             sodipodi:nodetypes="cc" /><path
             style="fill:none;stroke:url(#swatch1);stroke-width:3;stroke-linecap:round;stroke-linejoin:round"
             d="m 1143.2731,327.5625 c -2.9129,3.56778 -4.8965,6.20893 -6.586,12.1875"
             id="path20"
             sodipodi:nodetypes="cc" /><path
             style="fill:none;stroke:url(#swatch1);stroke-width:3;stroke-linecap:round;stroke-linejoin:round"
             d="m 1146.125,330.53125 c -2.3559,3.85906 -5.1581,9.68992 -5.375,12.09375"
             id="path21"
             sodipodi:nodetypes="cc" /></g></g><path
         style="fill:none;stroke:url(#swatch2);stroke-width:2.5;stroke-linecap:round;stroke-linejoin:round;stroke-dasharray:none"
         d="m 848.52813,465.27626 c 12.02081,2.82842 24.74874,-4.24264 33.23402,-1.41422 8.48528,2.82843 20.50609,10.60661 25.45584,9.19239 4.94975,-1.41421 60.67071,-11.31371 73.53911,-11.31371 12.86839,0 47.0447,4.94975 60.455,4.94975 13.4103,0 46.9696,-9.19239 65.41,-9.19239 18.4404,0 92.631,4.24264 108.1873,4.24264 15.5564,0 73.4406,-4.24072 83.4406,-4.24072 10,0 83.0831,6.7156 99.3465,6.7156 12.728,-12.72792 10.6066,-14.49569 10.6066,-24.04163 0,-9.54594 7.4247,-12.37437 7.4247,-12.37437 0,0 -6.364,-14.49569 -6.0104,-23.68808 0.3535,-9.19239 12.0208,-22.62742 12.0208,-22.62742 0,0 -4.5962,-11.66726 -4.9498,-16.97056 -0.3535,-5.3033 4.9498,-16.04479 2.8284,-25.76354 -2.1213,-9.71875 -27.2668,-35.5 -27.2668,-48 0,-6.75 15.75,-20 13.5,-36.75 -1,-6 -0.75,-10.75 -3.5,-14.75 -2.75,-4 -12.875,-7.875 -14.875,-9.25 -2,-1.375 -1.25,-4.625 -2.875,-5.875 -1.625,-1.25 -24.875,-8.625 -26,-15.375 -1.125,-6.75 -1,-16.125 -1,-16.125 L 1340.625,176.5 c 0,0 -3.1875,-8.8125 -3.75,-10.625 -2.0625,-1.9375 -22.625,-12.4375 -22.625,-12.4375 -7.0625,0.75 -37.875,3.5 -42.375,2.875 -4.5,-0.625 -17.7327,-6.31748 -21.0915,-6.75942 -3.3588,-0.44194 -31.5546,-2.29809 -34.3831,-2.65165 -2.8284,-0.35355 -10.7833,-3.71231 -13.0814,-3.71231 -2.2981,0 -27.4004,-0.7071 -35.3554,-4.06586 -7.9549,-3.35876 -15.9099,-10.6066 -17.5009,-17.67767 -1.2374,-3.88909 -5.4801,-2.47488 -9.5459,-0.88388 C 1136.8509,122.1527 1116.75,132 1116.75,132 l -15.25,4.25 c 0,0 -5.25,3 -6.5,3.25 -1.25,0.25 -11.75,-0.75 -13,-0.25 -1.25,0.5 -17.25,6.5 -19.25,7.25 -2,0.75 -12.9026,-0.75 -12.9026,-0.75 0,0 -8.9836,6.25 -15.2592,7 -5.8382,1.25 -17.9341,-0.25 -22.6362,0 -4.702,0.25 -11.702,4 -16.20201,4.25 -4.5,0.25 -20.75,-2 -20.75,-2 0,0 -8.75,6 -13,7 -0.75,3.5 -11.25,25.91431 -16.5,27.49937 -1.5,3.75063 -9.25,8.1186 -11,11.32624 -1.75,3.20764 -9.5,26.29939 -38.875,26.79939 -2.375,5.75 1.625,14.875 -28.5,13.5 -3.375,3.125 -11.875,20 -13.375,24.625 -1.5,4.625 -0.75,15.125 -5.625,21.5 2.75,5.875 7.125,20.375 4.25,30.625 0,6.5 1.125,24.875 -0.625,28.625 -1.75,3.75 -9.625,6.125 -10.75,9.5 -1.125,3.375 5.5,21.25 5.5,21.25 0,0 1,16.25 -0.25,18.5 -1.25,2.25 -9,1.5 -11.625,2.875 -1.875,3.25 10.125,34.75 7.5,38 -2.625,3.25 -13.25,1.875 -13.25,1.875 0,0 7.125,11 7.875,13.75 3,2.25 11,8 11,8 z"
         id="path22"
         inkscape:label="outer slime outline" /><g
         id="g33"
         inkscape:label="inner slime outline"><path
           style="fill:none;stroke:url(#swatch2);stroke-width:2.5;stroke-linecap:round;stroke-linejoin:round;stroke-dasharray:none"
           d="m 971.99999,306.09727 c -0.35943,0.72436 -1.18287,2.53698 -0.75,3.40273 0.52644,1.05287 1.04544,1.52263 1.25,2.75 0.25081,1.50485 -0.0929,0.49298 -0.25,1.75 -0.47445,3.7956 -0.16043,0.2687 0.25,1.5 0.23378,0.70133 -0.11743,1.7954 0,2.5 0.15865,0.95189 0.70857,1.70718 0.5,2.75 -0.16035,0.80176 -0.86668,1.36114 -1.25,2 -1.21793,2.02988 0.0477,0.10674 -0.25,1 -0.17205,0.51615 -0.53935,0.5787 -0.75,1 -0.14202,0.28404 0.0536,0.64275 -0.25,1.25 -0.14657,0.29314 0.14836,0.29672 0.25,0.5 0.0745,0.14907 0.11785,0.38215 0,0.5 -0.0589,0.0589 -0.25,-0.0833 -0.25,0 0,0.41386 0.41311,0.76067 0.25,1.25 -0.53915,1.61745 -0.70218,3.4631 -1,5.25 -0.1863,1.11783 -0.002,2.01158 -0.25,3.25 -0.13889,0.69444 0.20833,0.41666 0,1.25 -0.0286,0.11433 -0.22142,0.13566 -0.25,0.25 -0.23989,0.95958 -0.0556,2.02797 -0.25,3 0.0574,0.50203 -0.39116,0.81463 -0.5,1.25 -0.14275,0.57102 0.007,1.48612 -0.25,2 -0.38119,0.76239 -0.19819,-0.45724 -0.5,0.75 -0.0404,0.16169 0.0745,0.35093 0,0.5 -0.49808,0.99616 -0.50027,10e-4 -0.75,1 -0.0404,0.16169 0.0619,0.34525 0,0.5 -0.46007,1.15018 -1.81552,2.8592 -2.5,4 -0.40546,0.67577 -1.28017,2.09052 -1.5,2.75 -0.24807,0.7442 0.59197,-0.51295 -0.25,0.75 -0.41387,0.6208 -1.03309,1.16636 -1.5,1.75 -0.79238,0.99047 -1.37034,2.36102 -1.75,3.5 -0.0573,0.17183 -0.15276,1.40276 -0.25,1.5 -1.25333,1.25332 -2.8836,1.25 -4.5,1.25"
           id="path23" /><path
           style="fill:none;stroke:url(#swatch2);stroke-width:2.5;stroke-linecap:round;stroke-linejoin:round;stroke-dasharray:none"
           d="m 954.74999,362.75 c 0.75,1.66667 1.53006,3.32013 2.25,5 0.14957,0.34899 -0.16902,0.91196 0,1.25 0.84359,1.68718 1.08483,2.66741 2.75,3.5 1.04044,0.52022 -0.26726,-0.0173 0.25,0.5 0.33032,0.33032 1.26772,0.25 1.75,0.25"
           id="path24" /><path
           style="fill:none;stroke:url(#swatch2);stroke-width:2.5;stroke-linecap:round;stroke-linejoin:round;stroke-dasharray:none"
           d="m 948.24999,374.50976 c 0.0833,0.74675 0.25,1.48886 0.25,2.24024 0,0.37267 -0.33333,0.66666 -0.5,1 -0.14412,0.28824 -0.27042,1.02042 -0.5,1.25 -0.0589,0.0589 -0.19107,-0.0589 -0.25,0 -0.13176,0.13176 -0.14664,0.34495 -0.25,0.5 -0.36602,0.54903 -1.00729,0.28644 -1.25,1.5 -0.30817,1.54084 0.0709,3.71657 -0.25,5 -0.28854,1.15417 -0.50869,2.29344 -0.75,3.5 -0.14423,0.72115 0.14423,1.52884 0,2.25 -0.41501,2.07506 -1.1922,4.53898 -0.75,6.75 0.0246,0.12311 0.46676,1.96675 0.5,2 0.13176,0.13176 0.36824,0.11823 0.5,0.25 0.044,0.044 0.62154,1.0573 0.75,1.25 0.50569,0.75852 0.66756,1.66889 1,2.5 0.20271,0.50677 0.53197,0.81393 0.75,1.25 0.42307,0.84614 -0.44321,5.30678 0,5.75 0.0829,0.0829 0.85239,0.42619 1,0.5 0.67032,0.33515 1.07076,1.16037 1.75,1.5 0.92032,0.46016 2.4269,1.09152 3.25,1.75 0.68765,0.55012 1.20546,1.35273 2,1.75 0.15445,0.0772 0.90733,0.15733 1,0.25 0.33333,0.33333 -0.41667,0.25 0.25,0.25"
           id="path25" /><path
           style="fill:none;stroke:url(#swatch2);stroke-width:2.5;stroke-linecap:round;stroke-linejoin:round;stroke-dasharray:none"
           d="m 963.99999,417.75 c 1.82885,0.32684 3.69576,0.38915 5.5,0.75 0.40064,0.0801 0.84936,-0.0801 1.25,0 1.24373,0.24874 3.96872,1.60935 5.25,2.25 1.77059,0.88529 3.40484,2.20921 5.25,3 1.11085,0.47608 2.39635,0.527 3.5,1 0.27617,0.11835 0.48126,0.36563 0.75,0.5 1.03257,0.51628 0.52906,0.0465 1.75,0.25 0.36761,0.0613 0.64645,0.38214 1,0.5 0.63858,0.21286 1.34739,0.33684 2,0.5 0.45249,-0.15069 0.46496,0.40498 0.75,0.5 0.15811,0.0527 0.33831,-0.0404 0.5,0 1.20724,0.30181 -0.0124,0.1188 0.75,0.5 0.14907,0.0745 0.35093,-0.0745 0.5,0 0.21082,0.10541 0.27639,0.42546 0.5,0.5 0.23717,0.079 0.57322,-0.17678 0.75,0 0.33333,0.33333 -0.41667,0.25 0.25,0.25"
           id="path26" /><path
           style="fill:none;stroke:url(#swatch2);stroke-width:2.5;stroke-linecap:round;stroke-linejoin:round;stroke-dasharray:none"
           d="m 997.74999,408 c 0.0833,0.33333 0.16667,0.66666 0.25,1 0,0.25 -0.0606,0.50746 0,0.75 0.0729,0.29149 0.42713,0.4585 0.5,0.75 0.28364,1.13456 -0.25,2.39618 -0.25,3.5 0,1.5788 0.41683,3.91633 -0.25,5.25 -0.2636,0.5272 0.11246,1.68771 0,2.25 -0.17708,0.88542 -0.39886,1.45227 0,2.25 0.1,0.2 -0.1,0.55 0,0.75 0.32146,0.64291 1.5628,1.0936 2.25001,0.75 0.074,-0.0373 -0.037,-0.17547 0,-0.25 0.1492,-0.29849 0.7138,-0.46379 1,-0.75"
           id="path27" /><path
           style="fill:none;stroke:url(#swatch2);stroke-width:2.5;stroke-linecap:round;stroke-linejoin:round;stroke-dasharray:none"
           d="m 1017.25,414 c -1.3719,0.3671 -2.3732,1.24876 -3.5,2 -0.5329,0.35528 -1.004,1.00796 -1.25,1.5 -0.1674,0.33483 -0.5964,0.3464 -0.75,0.5 -0.1863,0.18634 -0.1038,0.53073 -0.25,0.75 -0.265,0.39748 -0.5357,0.0714 -0.75,0.5 -0.3552,0.71034 -1.4496,2.35082 -1,3.25 0.3857,0.77149 5.2587,3.8391 6.25,4.5 0.5949,0.39662 0.6305,1.03536 1.25,1.5 0.2108,0.15811 0.5637,0.0637 0.75,0.25 0.055,0.0552 -0.042,1 0,1 0.029,0 -0.037,-0.71324 0,-0.75 0.125,-0.125 0.375,-0.125 0.5,-0.25 0.059,-0.0589 -0.037,-0.17547 0,-0.25 0.2946,-0.58921 1.1716,-0.61568 1.75,-0.5 0.795,0.15899 1.4668,0.61947 2.25,0.75 0.2466,0.0411 0.5075,-0.0606 0.75,0 0.1143,0.0286 0.1382,0.21273 0.25,0.25 0.5141,0.17137 1.2189,-0.10621 1.75,0 1.6395,0.32789 3.3915,0.40212 5,0 0.4042,-0.10106 0.8414,0.0817 1.25,0 0.1827,-0.0365 0.3173,-0.21346 0.5,-0.25 0.6858,-0.13716 2.7418,-0.2459 3.25,-0.5 0.074,-0.0373 -0.037,-0.17547 0,-0.25 0.1054,-0.21082 0.3333,-0.33334 0.5,-0.5 0.1976,-0.1976 0.6597,-0.22899 0.75,-0.5 0.053,-0.15812 -0.092,-0.36133 0,-0.5 0.1034,-0.15505 0.3682,-0.11824 0.5,-0.25 0.1318,-0.13177 0.1182,-0.36824 0.25,-0.5 0.1318,-0.13177 0.3509,-0.1382 0.5,-0.25 0.9421,-0.70662 1.7393,-1.64361 2.75,-2.25 0.514,-0.30843 1.522,-0.32077 2,-0.5 1.0637,-0.39888 2.2749,-1.32499 3.5,-1.5 0.33,-0.0471 0.6667,0 1,0 0.5,-0.0833 1.0029,-0.15059 1.5,-0.25 0.5296,-0.10592 0.963,-0.3395 1.5,-0.25 2.8723,0.47872 5.9782,0.82607 8.75,1.75 1.0717,0.35722 2.1884,0.64613 3.25,1 0.3535,0.11785 0.6464,0.38214 1,0.5 1.5767,0.52556 3.3571,0.92141 5,1.25 0.1634,0.0327 0.3509,-0.0745 0.5,0 0.3974,0.1987 0.7729,0.36369 1.25,0.5 1.2924,0.36925 2.6689,0.6021 4,0.75 0.5798,0.0644 1.1841,-0.14148 1.75,0 0.1143,0.0286 0.1446,0.19729 0.25,0.25 0.061,0.0307 2.8747,0.22215 3,0.25 0.7681,0.17069 1.7038,0.51541 2.5,0.25 0.3381,-0.1127 0.6711,-0.33558 1,-0.5 0.2236,-0.11181 0.5075,0.0606 0.75,0 0.1808,-0.0452 0.3333,-0.16667 0.5,-0.25 0.25,-0.0833 0.4916,-0.19832 0.75,-0.25 0.1634,-0.0327 0.3419,0.0527 0.5,0 0.526,-0.17534 0.922,-0.85551 1.5,-1 1.0447,-0.26118 2.0426,-0.52129 3,-1 0.5366,-0.26829 2.6461,0.0863 3.25,0 0.6323,-0.0903 1.2209,-0.73545 1.75,-1 0.7842,-0.39211 1.821,-0.57098 2.5,-1.25 0.059,-0.0589 -0.059,-0.19108 0,-0.25 8e-4,-8e-4 0.7735,-0.52348 1,-0.75 0.8291,-0.82915 -0.1179,0.2357 0.25,-0.5 0.1024,-0.2048 2.1476,-1.94879 2.25,-2 0.1345,-0.0673 1.1456,0.21518 1.25,0.25 0.3316,0.11052 3.5894,2.08936 3.75,2.25 0.1178,0.11785 0,0.33333 0,0.5 0,0.71243 0.2257,1.82291 0,2.5 -0.059,0.17677 -0.2048,0.31922 -0.25,0.5 -0.1744,0.69742 0.2263,1.57117 0,2.25 -0.2976,0.89284 -0.4897,2.29135 -0.25,3.25 0.029,0.11433 0.2127,0.13819 0.25,0.25 0.053,0.15811 -0.074,0.35092 0,0.5 0.037,0.0745 0.1911,-0.0589 0.25,0 0.059,0.0589 -0.037,0.17546 0,0.25 0.5011,1.00221 0.75,0.33207 0.75,1.75"
           id="path28" /><path
           style="fill:none;stroke:url(#swatch2);stroke-width:2.5;stroke-linecap:round;stroke-linejoin:round;stroke-dasharray:none"
           d="m 1124.5,437.5 c -0.7037,-1.34252 -1.9308,-2.2712 -2.75,-3.5 -0.046,-0.0693 0.059,-0.19108 0,-0.25 -0.059,-0.0589 -0.2127,0.0745 -0.25,0 -0.3601,-0.72017 0.2558,-1.98252 0,-2.75 -0.143,-0.42889 -0.1171,-0.85125 -0.25,-1.25 -0.083,-0.24896 -0.417,-0.50104 -0.5,-0.75 -0.075,-0.225 0.075,-0.525 0,-0.75 -0.9219,-2.76557 -0.7895,-5.10524 2,-6.5 0.1475,-0.0738 0.582,0 0.75,0 2.1272,0 3.0748,1.10827 5,1.75 1.1731,0.39102 2.3262,0.41464 3.5,0.75 1.8122,0.51778 -1.5338,-0.006 1.5,0.5 0.9194,0.15323 1.8194,0.15694 2.75,0.25 1.0906,0.10906 2.1782,0.27034 3.25,0.5 0.5153,0.11043 0.9832,0.39663 1.5,0.5 1.0441,0.63467 2.1744,0.0963 3.25,0.25 0.7581,0.1083 1.5245,0.3549 2.25,0.5 2.2491,0.44982 4.7156,0.32427 7,0.5 1.0813,-0.29595 1.9924,0.38804 3,0.5 1.5914,0.17682 3.6553,0.19933 5.25,0 0.8258,-0.10323 1.6618,-0.38027 2.5,-0.5 1.3311,-0.19017 2.6576,-0.11576 4,-0.25 0.4228,-0.0423 0.8333,-0.16667 1.25,-0.25 0.5833,-0.0833 1.1632,-0.19666 1.75,-0.25 1.4877,-0.13525 3.0123,0.13524 4.5,0 1.7972,-0.16338 3.6814,-0.45207 5.5,-0.25 0.2619,0.0291 0.5,0.16666 0.75,0.25 0.5,0 1,0 1.5,0 0.6381,0 4.843,0.40697 5,0.25 0.059,-0.0589 -0.059,-0.19108 0,-0.25 0.2429,-0.24296 0.6927,-0.0963 1,-0.25 0.4493,-0.22468 1.6901,-1.25 2,-1.25"
           id="path29" /><path
           style="fill:none;stroke:url(#swatch2);stroke-width:2.5;stroke-linecap:round;stroke-linejoin:round;stroke-dasharray:none"
           d="m 1213,416.5 c 0.8499,-0.0261 1.6837,0.39795 2.5,0.5 0.6581,0.13781 1.3385,-0.0827 2,0 1.689,0.21112 3.5325,0.46469 5.25,0.25 1.2804,-0.16006 2.4792,-0.5382 3.75,-0.75 0.958,-0.15967 2.9039,-0.16157 3.75,-0.5 0.868,-0.34722 1.6606,-1.08033 2.5,-1.5 0.2017,-0.10085 1.3352,-0.33522 1.5,-0.5 0.1318,-0.13177 0.095,-0.39664 0.25,-0.5 0.1387,-0.0924 0.3613,0.0924 0.5,0 0.155,-0.10337 0.1182,-0.36824 0.25,-0.5 0.2048,-0.20481 1.0255,-0.83162 1.25,-1 0.8881,-0.6661 1.6074,-1.58056 2.5,-2.25 0.1491,-0.11181 0.3682,-0.11824 0.5,-0.25 0.1318,-0.13177 0.1182,-0.36824 0.25,-0.5 0.4203,-0.42036 0.8478,-0.4638 1.25,-1 0.1118,-0.14907 0.1182,-0.36824 0.25,-0.5 0.2124,-0.21246 0.5154,-0.31231 0.75,-0.5 0.7894,-0.63154 1.4492,-1.39942 2.25,-2 0.294,-0.22052 0.648,-0.82403 1,-1 0.074,-0.0373 0.1911,0.0589 0.25,0 1.2517,-1.25175 -1.3037,0.38219 1,-1 0.681,-0.4086 1.5269,-0.96078 2.25,-1.25 0.3971,-0.15884 1.1163,-0.0582 1.5,-0.25 0.1054,-0.0527 0.1382,-0.21274 0.25,-0.25 0.5193,-0.17311 1.206,0.0907 1.75,0 0.3389,-0.0565 0.6611,-0.19352 1,-0.25 0.8364,-0.13941 1.9476,0.26746 2.75,0 0.1118,-0.0373 0.1382,-0.21274 0.25,-0.25 0.2372,-0.0791 0.5264,0.1118 0.75,0 0.4046,-0.20233 0.9493,-0.94933 1.25,-1.25 0.9535,-0.95349 1.7644,-1.89663 2.5,-3 0.533,-0.7995 0.5924,-1.68478 1,-2.5 0.1054,-0.21082 0.4255,-0.2764 0.5,-0.5 0.053,-0.15812 -0.053,-0.34189 0,-0.5 0.1118,-0.33541 0.5379,-0.46716 0.75,-0.75 0.2236,-0.29815 0.2365,-0.73648 0.5,-1 0.4509,-0.45094 1.454,-0.92243 2,-1.25 1.1334,-0.68006 1.2773,-0.54623 2.5,-0.75 2.4309,-0.40516 4.6254,-0.29154 7,0.5 0.4232,0.14106 0.8182,0.39205 1.25,0.5 0.1617,0.0404 0.3419,-0.0527 0.5,0 0.1118,0.0373 0.1357,0.22141 0.25,0.25 0.2425,0.0606 0.5075,-0.0606 0.75,0 0.2699,0.0675 1.2966,0.75 1.5,0.75 0.222,0 2.2126,0.23128 2.25,0.25 0.074,0.0373 -0.059,0.19107 0,0.25 0.125,0.125 0.625,-0.125 0.75,0 0.059,0.0589 0,0.16666 0,0.25"
           id="path30" /><path
           style="fill:none;stroke:url(#swatch2);stroke-width:2.5;stroke-linecap:round;stroke-linejoin:round;stroke-dasharray:none"
           d="m 1254.4074,312.54119 c -0.2946,0 -0.595,-0.0578 -0.8839,0 -0.058,0.0116 0.026,0.12408 0,0.17678 -0.037,0.0745 -0.1178,0.11785 -0.1767,0.17678 -0.7449,0.7449 -1.0853,1.48793 -1.4143,2.47487 -0.042,0.125 -0.1767,0.22179 -0.1767,0.35355 0,0.51726 0.2479,0.4613 0.3535,0.88389 0.029,0.11433 -0.065,0.25549 0,0.35355 0.1179,0.17678 0.4029,0.18359 0.5304,0.35356 0.638,0.85067 1.3803,1.42172 1.5909,2.47487 0.1055,0.5273 -0.085,0.77933 -0.1767,1.23744 -0.069,0.34668 0.058,0.71191 0,1.06066 -0.091,0.54287 -0.7737,1.15951 -0.5304,1.76776 0.5489,1.37218 2.424,1.48616 3.5356,2.12132 0.1447,0.0827 0.2357,0.23571 0.3535,0.35356 0.2357,0.11785 0.4649,0.24974 0.7071,0.35355 0.1713,0.0734 0.3753,0.0734 0.5304,0.17678 0.208,0.13867 0.3351,0.37415 0.5303,0.53033 0.4601,0.36805 1.1053,0.56012 1.591,0.88388 0.6825,0.45499 1.3178,1.06872 1.9445,1.59099 0.9948,0.82898 2.2805,1.40247 3.3588,2.12132 0.7242,0.4828 1.4432,1.04848 2.1213,1.59099 0.4527,0.36218 0.7847,0.87526 1.2374,1.23744 0.363,0.29033 0.9169,0.56327 1.2375,0.88388 0.1502,0.15023 0.2033,0.3801 0.3535,0.53033 0.093,0.0932 0.2507,0.0945 0.3536,0.17678 0.3253,0.26029 0.5266,0.66951 0.8839,0.88388 0.1597,0.0959 0.3848,0.0604 0.5303,0.17678 0.1659,0.13272 0.2208,0.36443 0.3535,0.53033 0.3486,0.43565 0.9513,0.76039 1.2375,1.23744 0.3432,0.57197 0.7193,1.02212 1.0606,1.59099 0.1633,0.27212 0.2279,0.63254 0.3536,0.88388 0.037,0.0745 0.1504,0.0977 0.1768,0.17678 0.053,0.15909 -0.053,0.37123 0,0.53033 0.1923,0.57705 0.2309,0.14818 0.3535,0.88388 0.068,0.40687 -0.068,0.83057 0,1.23744 0.022,0.12996 0.1448,0.22572 0.1768,0.35355 0.1659,0.66344 -0.1127,1.44502 0,2.12132 0.04,0.23965 0.1424,0.46659 0.1768,0.70711 0.064,0.44864 -0.1098,0.97503 0,1.41421 0.1043,0.41724 0.2657,0.79819 0.3535,1.23744 0.046,0.23112 -0.046,0.47598 0,0.7071 -0.04,0.355 0.2766,0.57604 0.3536,0.88389 0.029,0.11433 -0.044,0.24413 0,0.35355 0.07,0.17442 0.7847,1.63554 0.8839,1.76777 0.15,0.2 0.3916,0.32232 0.5303,0.53033 0.279,0.41848 0.092,0.44563 0.5303,0.88388 0.098,0.0985 1.2178,1.00174 1.2375,1.06066 0.037,0.1118 -0.037,0.24175 0,0.35355 0.053,0.15812 0.2611,0.21488 0.3535,0.35356 0.2168,0.3251 0.3712,0.74243 0.5304,1.06066 0.1168,0.23369 -0.083,0.63508 0,0.88388 0.2357,0.70711 0.1696,-0.0357 0.3535,0.88389 0.046,0.23112 -0.046,0.47598 0,0.7071 0.095,0.47511 0.5072,1.3069 0.3536,1.76777 -0.3848,1.15424 -0.4166,2.33669 -0.1768,3.53553 0.062,0.31088 -0.1381,0.78452 0,1.06066 0.2587,0.51749 0.6772,1.14786 0.8839,1.76777 0.1724,0.51736 0.088,0.66203 0.3535,1.06066 0.6265,0.93967 1.6929,1.61329 2.6517,2.2981 0.1729,0.12349 0.3403,0.25854 0.5303,0.35355 0.053,0.0264 0.1351,-0.0417 0.1768,0 0.042,0.0417 -0.042,0.13511 0,0.17678 0.083,0.0833 0.2702,-0.0833 0.3535,0 0.042,0.0417 -0.053,0.15042 0,0.17677 0.1581,0.0791 0.3722,-0.079 0.5304,0 0.6789,0.33947 1.5277,0.45032 2.2981,0.70711 0.25,0.0833 0.4571,0.27022 0.7071,0.35355 0.9334,0.31116 1.9356,0.23275 2.8284,0.53033 0.1118,0.0373 0.2481,-0.0527 0.3535,0 0.2438,0.1219 0.477,0.37689 0.7072,0.53033 0.264,0.17602 0.6198,0.17754 0.8838,0.35356 0.049,0.0327 -0.042,0.13511 0,0.17677 0.031,0.0314 0.4048,0.22803 0.5304,0.35356 0.2674,0.26744 0.4509,0.62766 0.7071,0.88388 0.133,0.13306 0.7877,0.43413 0.8839,0.53033 0.093,0.0932 0.084,0.26038 0.1767,0.35355"
           id="path31" /><path
           style="fill:none;stroke:url(#swatch2);stroke-width:2.5;stroke-linecap:round;stroke-linejoin:round;stroke-dasharray:none"
           d="m 1239.5,300.25 c 0.4694,1.59691 0.3596,3.21065 -0.5,4.5 -0.1961,0.29417 -0.5919,0.43377 -0.75,0.75 -0.2186,0.43719 -0.7235,1.23672 -1.25,1.5 -0.2688,0.13437 -0.4813,0.36563 -0.75,0.5 -0.1491,0.0745 -0.3509,-0.0745 -0.5,0 -0.2108,0.10541 -0.2892,0.39459 -0.5,0.5 -0.2236,0.1118 -0.5732,-0.17678 -0.75,0 -0.059,0.0589 0.059,0.19107 0,0.25 -0.2946,0.29462 -0.8333,0 -1.25,0 -0.9289,0 -2.0832,0.18335 -3,0 -1.3027,-0.26053 -2.6396,-0.80566 -4,-1 -1.7443,-0.24918 -3.1161,-0.5774 -4.5,-1.5 -0.2193,-0.14618 -0.5637,-0.0637 -0.75,-0.25 -0.059,-0.0589 0.037,-0.17547 0,-0.25 -0.3615,-0.723 -1.4929,-1.57388 -2,-2.25 -0.6141,-0.0892 -0.1038,-0.53074 -0.25,-0.75 -0.1961,-0.29418 -0.6382,-0.41459 -0.75,-0.75 -0.053,-0.15812 0.074,-0.35093 0,-0.5 -0.1054,-0.21082 -0.3586,-0.31144 -0.5,-0.5 -0.3654,-0.48725 -0.3445,-1.3445 -0.75,-1.75 -0.059,-0.0589 -0.1911,0.0589 -0.25,0 -0.1453,-0.1453 -0.145,-0.78991 -0.25,-1 -0.7044,-1.40873 -1.4369,-2.93462 -1.75,-4.5 -0.049,-0.24515 0.061,-0.50747 0,-0.75 -0.029,-0.11434 -0.2127,-0.1382 -0.25,-0.25 -0.1477,-0.44301 0.092,-1.04035 0,-1.5 -0.3923,-1.96158 0.063,-4.15487 -1,-5.75 -0.1462,-0.21927 -0.064,-0.56366 -0.25,-0.75 -0.084,-0.0842 -3.2015,-0.17015 -4,-0.25 -1.2499,-0.12499 -2.2956,-0.50912 -3.5,-0.75 -1.7879,-0.35759 -3.6868,-0.54853 -5.5,-0.75 -1.1098,-0.12331 -2.1512,-0.61265 -3.25,-0.75 -0.3308,-0.0414 -0.6712,0.0548 -1,0 -1.1307,-0.18845 -2.3339,-0.76678 -3.5,-1 -0.4086,-0.0817 -0.8414,0.0817 -1.25,0 -0.7591,-0.15182 -1.4634,-0.61889 -2.25,-0.75 -1.1497,-0.19161 -1.6566,-0.38553 -2.75,-0.75 -0.2372,-0.0791 -0.5075,0.0606 -0.75,0 -0.6983,-0.17458 -1.5722,-0.27405 -2.25,-0.5 -0.3536,-0.11785 -0.6465,-0.38215 -1,-0.5 -0.4075,-0.13583 -1.0925,-0.11418 -1.5,-0.25 -0.2402,-0.0801 -0.5328,-0.35519 -0.75,-0.5 -0.8499,-0.56657 -0.1341,-0.0335 -1,-0.25 -1.6839,-0.42099 0,-0.004 -0.5,-0.5 -0.1179,-0.11785 -0.3509,0.0745 -0.5,0 -0.1054,-0.0527 -0.1446,-0.1973 -0.25,-0.25 -0.3689,-0.18444 -3.4238,0.41768 -4,0.5 -1.9572,0.27959 -4.0506,-0.32491 -6,0 -0.2599,0.0433 -0.4916,0.19832 -0.75,0.25 -1.1931,0.23862 -2.5715,-0.29463 -3.75,0 -1.3648,0.34121 -3.0588,0.43015 -4.5,0.25 -0.2615,-0.0327 -0.4916,-0.19832 -0.75,-0.25 -0.4747,-0.0949 -1.0307,0.11732 -1.5,0 -1.3571,-0.33926 -2.663,-0.55433 -4,-1 -0.1581,-0.0527 -0.3419,0.0527 -0.5,0 -0.7,-0.23334 -1.3,-0.76667 -2,-1 -0.1581,-0.0527 -0.3509,0.0745 -0.5,0 -0.2108,-0.10541 -0.3039,-0.36926 -0.5,-0.5 -0.2772,-0.18477 -0.9244,-0.39147 -1.25,-0.5 -0.6894,-0.2298 -1.4054,-0.85359 -2,-1.25 -0.2193,-0.14618 -0.5637,-0.0637 -0.75,-0.25 -0.059,-0.0589 0.059,-0.19108 0,-0.25 -0.3209,-0.32086 -1.1791,-0.17914 -1.5,-0.5 -0.059,-0.0589 0.059,-0.19108 0,-0.25 -0.1156,-0.11557 -0.5991,0.0755 -0.75,0 -0.1054,-0.0527 -0.1446,-0.1973 -0.25,-0.25 -0.7244,-0.36219 -2.0149,0.56622 -2.75,0.75 -1.6861,0.42152 1.3985,-0.90941 -1.5,0.25 -0.1094,0.0438 -0.1667,0.16666 -0.25,0.25 -0.1667,0.0833 -0.3232,0.19107 -0.5,0.25 -2.5457,0.84855 -5.2862,2 -8,2 -1.5833,0 -3.1667,0 -4.75,0 -0.5955,0 -1.4341,0.14146 -2,0 -0.1808,-0.0452 -0.3232,-0.19108 -0.5,-0.25 -0.225,-0.075 -0.525,0.075 -0.75,0 -0.1118,-0.0373 -0.1344,-0.22689 -0.25,-0.25 -0.3269,-0.0654 -0.6712,0.0548 -1,0 -0.1838,-0.0306 -0.3173,-0.21346 -0.5,-0.25 -0.7714,-0.15428 -1.3498,-0.17492 -2,-0.5 -0.3353,-0.16766 -0.9348,-0.0924 -1.25,-0.25 -0.3398,-0.1699 -0.6602,-0.58011 -1,-0.75 -0.9636,-0.48177 -1.7975,-1.03564 -2.75,-1.75 -0.5241,-0.39305 -0.5942,-0.8442 -0.75,-1 -0.083,-0.0833 -0.1667,0.16666 -0.25,0.25 -0.059,0.0589 -0.1911,-0.0589 -0.25,0 -0.1863,0.18634 -0.064,0.56366 -0.25,0.75 -0.2635,0.26352 -0.7365,0.23647 -1,0.5 -0.1318,0.13176 -0.1009,0.38819 -0.25,0.5 -0.2108,0.15811 -0.5143,0.13215 -0.75,0.25 -1.579,0.7895 -2.8167,2.07666 -4.5,2.75 -0.3945,0.15781 -0.8555,0.0922 -1.25,0.25 -0.279,0.11159 -0.471,0.38841 -0.75,0.5 -0.5398,0.21591 -1.6463,0.29877 -2.25,0.5 -0.653,0.21768 -1.3334,0.61668 -2,0.75 -0.8856,0.17711 -1.8605,0.0721 -2.75,0.25 -0.1827,0.0365 -0.3162,0.21936 -0.5,0.25 -2.0158,0.33595 -4.3276,-0.1408 -6.25,0.5 -0.3054,0.1018 -1.285,-0.21506 -1.5,0 -0.059,0.0589 0.059,0.19107 0,0.25 -0.083,0.0833 -0.6667,0.16666 -0.75,0.25 -0.1179,0.11785 0.074,0.35093 0,0.5 -0.1864,0.37285 -0.5593,0.61863 -0.75,1 -0.074,0.14907 0.074,0.35093 0,0.5 -0.6146,1.22918 -0.7171,2.58523 -1,4 -0.1282,0.64102 0.1282,1.35897 0,2 -0.2075,1.03731 -0.7833,2.11666 -0.5,3.25 0.3319,1.32776 1.1877,2.91695 2,4 0.2205,0.29401 0.824,0.64806 1,1 0.037,0.0745 -0.059,0.19107 0,0.25 0.044,0.0442 0.4116,0.16161 0.5,0.25"
           id="path32" /><path
           style="fill:none;stroke:url(#swatch2);stroke-width:2.5;stroke-linecap:round;stroke-linejoin:round;stroke-dasharray:none"
           d="m 983.05519,303.87914 c 0.0502,0.0402 1.13279,0.94809 1.41422,1.06066 0.10942,0.0438 0.24814,-0.0527 0.35355,0 0.0527,0.0264 -0.0417,0.13511 0,0.17677 0.0932,0.0932 0.2357,0.11785 0.35355,0.17678 0.10541,0.0527 0.27022,-0.0833 0.35356,0 0.0417,0.0417 -0.0417,0.13511 0,0.17678 0.1226,0.1226 1.36474,0.65054 1.59099,0.7071 0.44881,0.11221 1.13094,0 1.59099,0 0.21563,0 0.85649,0.10209 1.06066,0 0.39086,-0.19543 0.0549,-0.10971 0.17677,-0.35355 0.19693,-0.39385 0.74551,-0.7455 1.06066,-1.06066 0.32508,-0.32507 0.74749,-0.5707 1.06067,-0.88388 0.20034,-0.20035 0.23734,-0.56062 0.53033,-0.70711 0.0527,-0.0263 0.13511,0.0417 0.17677,0 0.0417,-0.0417 -0.0263,-0.12407 0,-0.17678 0.21213,-0.42426 0.84853,-0.63639 1.06066,-1.06066 0.0263,-0.0527 -0.0417,-0.13511 0,-0.17677 0.0417,-0.0417 0.12407,0.0264 0.17678,0 0.39463,-0.19732 1.09632,-0.56599 1.41421,-0.88389 0.0417,-0.0417 -0.0417,-0.13511 0,-0.17677 0.0417,-0.0417 0.12407,0.0263 0.17678,0 0.2215,-0.11075 0.16913,-0.34973 0.53033,-0.53033 0.29046,-0.14523 1.30625,0.16478 1.41421,0.17677 1.56859,0.17429 3.08012,0.15132 4.59622,0.53033 0.6043,0.15109 1.3246,-0.0775 1.9445,0 2.6765,0.33456 5.3283,0.0842 7.955,-0.35355 0.6212,-0.10354 1.1667,-0.55685 1.7677,-0.70711 0.1144,-0.0286 0.2442,0.0438 0.3536,0 1.1444,-0.45774 2.1254,-1.34081 3.182,-1.94454 0.3985,-0.22776 0.8987,-0.36837 1.2374,-0.70711 0.1074,-0.10743 0.4627,-0.94799 0.5303,-1.06066 0.1942,-0.32354 0.513,-0.56034 0.7071,-0.88388 0.2838,-0.47295 0.2928,-0.93913 0.5304,-1.41422 0.1043,-0.20874 1.6755,-2.42875 1.7677,-2.47487 0.42,-0.21 2.334,0.14148 2.6517,0.17678 1.3975,0.15528 2.8433,-0.13994 4.2426,0 0.2418,0.0242 0.4657,0.14994 0.7071,0.17677 0.7371,0.0819 1.5542,0 2.2981,0 2.945,0 5.9214,0.11498 8.8389,-0.17677 1.1085,-0.11085 2.247,0.0794 3.3587,0 4.1811,-0.29865 -0.613,-0.0301 2.2981,-0.35356 0.5753,-0.0639 1.1925,-0.11285 1.7678,-0.17677 0.578,-0.0642 1.1948,0.0955 1.7678,0 1.3544,-0.22574 2.7119,-0.51369 4.0658,-0.70711 0.8744,-0.1249 1.6341,-0.64365 2.4749,-0.88388 1.197,-0.34201 2.6306,-0.58839 3.7123,-1.23744 0.1429,-0.0857 0.2045,-0.27902 0.3536,-0.35355 0.5191,-0.25956 1.2211,-0.29605 1.7677,-0.53033 0.839,-0.35957 1.6651,-0.83254 2.4749,-1.23744 0.5212,-0.26059 0.9159,-0.81152 1.4142,-1.06066 0.8964,-0.44817 1.8067,-0.85092 2.6517,-1.41421 0.1748,-0.11658 0.6104,-0.88389 0.7071,-0.88389 0.3582,0 1.0313,1.73839 1.4142,2.12132 0.093,0.0932 0.2604,0.0836 0.3535,0.17678 0.2141,0.42809 0.084,0.26038 0.3536,0.53033 0.2618,0.2618 0.7844,0.6076 1.0607,0.88388 0.2251,0.22514 0.3869,0.77382 0.5303,1.06066 0.2588,0.51759 0.7413,1.02061 0.8839,1.59099 0.029,0.11434 -0.037,0.24175 0,0.35356 0.026,0.079 0.1565,0.0959 0.1767,0.17677 0.1145,0.45783 0.099,0.94646 0.1768,1.41422 0.091,0.54466 0.4396,1.04632 0.5304,1.59099 0.2696,1.61763 0.1767,3.29935 0.1767,4.94975"
           id="path33" /></g><g
         id="g37"
         inkscape:label="goblet"><path
           style="fill:none;stroke:url(#swatch10);stroke-width:2.5;stroke-linecap:round;stroke-linejoin:round;stroke-dasharray:none"
           d="m 1084.5,319.25 c -10.6887,-8.34405 -32.8031,-6.2566 -42.0687,-1.66366 -8.0613,3.99595 -4.4418,16.44041 20.0323,11.33587 9.9153,-2.06802 32.7251,-1.32816 22.0364,-9.67221 z"
           id="path34"
           sodipodi:nodetypes="zzzz" /><path
           style="fill:none;stroke:url(#swatch10);stroke-width:2.5;stroke-linecap:round;stroke-linejoin:round;stroke-dasharray:none"
           d="m 1088.75,324 c 2.6726,11.38691 -3.6855,25.21142 -8.8129,32.08536 -5.1274,6.87394 -8.4041,7.6764 -12.1657,13.30296 -3.7616,5.62656 -1.6984,16.41835 2.8297,20.31651 4.5281,3.89816 9.2846,2.70507 12.8669,5.35741 3.5823,2.65234 0.8537,8.21269 -4.7447,11.31741 -5.5984,3.10472 -16.1798,3.44409 -23.0954,2.36943 -6.9156,-1.07466 -13.4423,-2.30314 -17.9033,-5.89038 -4.461,-3.58724 -0.7423,-7.82117 2.2758,-10.1087"
           id="path35"
           sodipodi:nodetypes="czzzzzzzc" /><path
           style="fill:none;stroke:url(#swatch10);stroke-width:2.5;stroke-linecap:round;stroke-linejoin:round;stroke-dasharray:none"
           d="m 1042.75,395 c 6.0247,0.1232 10.1092,-2.0174 11.8934,-9.35686 1.7842,-7.33946 -0.9335,-15.84236 -7.4623,-24.47198 -6.5288,-8.62962 -12.1686,-23.88845 -9.1811,-36.92116"
           id="path36"
           sodipodi:nodetypes="czzc" /><path
           style="fill:none;stroke:url(#swatch10);stroke-width:2.5;stroke-linecap:round;stroke-linejoin:round;stroke-dasharray:none"
           d="m 1078.75,336.75 c -1.7362,5.62603 -4.537,10.92753 -8.25,15.5"
           id="path37"
           sodipodi:nodetypes="cc" /></g></g></g></svg>
